/* XPM */
static char *_969bb3878ec437a81aa91bb1776516abpq0bcYwLCyrzAxF[] = {
/* columns rows colors chars-per-pixel */
"41 73 17 1 ",
"  c #557D55",
". c black",
"X c gray2",
"o c gray4",
"O c gray7",
"+ c #1E1E1E",
"@ c #121038",
"# c #353535",
"$ c #383638",
"% c #3E3C3E",
"& c #615F61",
"* c #6B676B",
"= c #C9A488",
"- c #CBAA91",
"; c #E0B798",
": c #E3BEA2",
"> c gray96",
/* pixels */
"                  .......                ",
"                  .......                ",
"                  .......                ",
"                  .......                ",
"                  .......                ",
"              ..............             ",
"              ..............             ",
"              ..............             ",
"              ..............             ",
"              &&&&..........             ",
"              &&&&..........             ",
"              &&&&..........             ",
"            &&................           ",
"            &&................           ",
"            &&................           ",
"            &&................           ",
"         &&&......................       ",
"         &&&......................       ",
"         &&&......................       ",
"            --================           ",
"            --================           ",
"            ;;;;;;;;;;;;;;@@@@           ",
"            ;;;;;;;;;;;;;;@@@@           ",
"            ;;;;;;;;;;;;;;@@@@           ",
"            ;;;;;;;;;;;;;;@@@@           ",
"            ;;;;;;;;;;;;;;;;;;           ",
"            ;;;;;;;;;;;;;;;;;;           ",
"            ;;;;;;;;;;;;;X....           ",
"            ;;;;;;;;;;;;;X....           ",
"            ;;;;;;;;;;;;;X....           ",
"            ;;;;;;;;;;;;;X....           ",
"            ::;;;;;;;;;;;;;;;;           ",
"              ;;;;;;;;;;;;;;             ",
"       XXXXXXX;;;;;;;;;;;;;;             ",
"       X**XXXX;;;;;;;;;;;;;;             ",
"     ++***XXXX**************++++++       ",
"    ++***+++X+++++++++++++++++++++       ",
"   ++***++XXXXXXXX++++++XXXXXXXX++       ",
" X++****++XXXXXXXOXXXXXX#XXXXXXXX+       ",
" X+*****#XXXXXXXXXXXXXXX++XXXXXXXX       ",
" X*****##XXXXXXXXXXXXXXXX#XXXXXXXX       ",
"XX****##XXXXXXXXXXXXXXXXXXXXXXXXXX       ",
"XX****#+XXXXXXXXXXXXXXXXXXXXXXXXXX       ",
"XX****#+XXXXXXXXXXXXXXXXXXXXXXXXXX       ",
"XX****$XXXXXXXXXXXXXXXXXXXXXXXXXXX       ",
"XX****$XXXXXXXXXXXXXXXXXXXXXXXXXXX       ",
"XX****%XXXXXXXXXXXXXXXXXXXXXXXXXXX       ",
"XX****%XXXXXXXXXXX++++++++XXXXXXXX       ",
" X%%%%XXXXXXXXXXXX+++++++XXXXXXXXX       ",
" XXXXXXXXXXXXXXXXX+++++++XXXXXXXXX       ",
" XXXXXXX XXXXXXXXX+++++++XXXXXXXXX       ",
"         XXXXXXXXX;;;;;;;XXXXXXXXX       ",
"         XXXXXXXXX;;;;;;;XXXXXXXXX       ",
"         XXXXXXXXX;;;;;;;XXXXXXXXX       ",
"         XXXXXXXXX;;;;;;;XXXXXXXXX       ",
"         XXXXXXXXX;;;;;;;XXXXXXXXX       ",
"         XXXXXXXXX;;;;;;;XXXXXXXXX       ",
"         XXXXXXXXX;;;;;;;XXXXXXXXX       ",
"         XXXXXXXXXXXXoooo+++XXXXXX       ",
"         XXXXXXXXXXXXXXXX+++XXXXXX       ",
"         XXXXXXXXXXXXXXXX+++XXXXXX       ",
"         XXXXXXXXXXXXXXXX+++XXXXXX       ",
"         XXXXX+++++++++++XXXXXXXXX       ",
"         XXXXX+++++++++++XXXXXXXXX       ",
"         XXXXXoooooooooooooooooooo       ",
"         XXXXXoooooooooooooooooooo       ",
"         XXXXXoooooooooooooooooooo       ",
"     XXXXXXXooooooooooooooooooooooooo    ",
"     XXXXXXXooooooooooooooooooooooooo    ",
"     XXXXXXXooooooooooooooooooooooooo    ",
"     XXXXXXXooooooooooooooooooooooooo    ",
"  XXXXXXXXXXXXXXXXXXXXXXXXXXXXoooooooXXXX",
"  XXXXXXXXXXXXXXXXXXXXXXXXXXXXoooooooXXXX",
"  XXXXXXXXXXXXXXXXXXXXXXXXXXXXoooooooXXXX",
};
