/* XPM */
static char *_d6b100e5efa4594e6e5d24609a9585e9vGNJvy8e1tPpMKW[] = {
/* columns rows colors chars-per-pixel */
"41 73 17 1 ",
"  c #557D55",
". c black",
"X c gray2",
"o c gray4",
"O c gray7",
"+ c #1E1E1E",
"@ c #121038",
"# c #353535",
"$ c #383638",
"% c #3E3C3E",
"& c #615F61",
"* c #6B676B",
"= c #C9A488",
"- c #CBAA91",
"; c #E0B798",
": c #E3BEA2",
"> c gray96",
/* pixels */
"                .......                  ",
"                .......                  ",
"                .......                  ",
"                .......                  ",
"                .......                  ",
"             ..............              ",
"             ..............              ",
"             ..............              ",
"             ..............              ",
"             ..........&&&&              ",
"             ..........&&&&              ",
"             ..........&&&&              ",
"           ................&&            ",
"           ................&&            ",
"           ................&&            ",
"           ................&&            ",
"       ......................&&&         ",
"       ......................&&&         ",
"       ......................&&&         ",
"           ================--            ",
"           ================--            ",
"           @@@@;;;;;;;;;;;;;;            ",
"           @@@@;;;;;;;;;;;;;;            ",
"           @@@@;;;;;;;;;;;;;;            ",
"           @@@@;;;;;;;;;;;;;;            ",
"           ;;;;;;;;;;;;;;;;;;            ",
"           ;;;;;;;;;;;;;;;;;;            ",
"           ....X;;;;;;;;;;;;;            ",
"           ....X;;;;;;;;;;;;;            ",
"           ....X;;;;;;;;;;;;;            ",
"           ....X;;;;;;;;;;;;;            ",
"           ;;;;;;;;;;;;;;;;::            ",
"             ;;;;;;;;;;;;;;              ",
"             ;;;;;;;;;;;;;;XXXXXXX       ",
"             ;;;;;;;;;;;;;;XXXX**X       ",
"       ++++++**************XXXX***++     ",
"       +++++++++++++++++++++X+++***++    ",
"       ++XXXXXXXX++++++XXXXXXXX++***++   ",
"       +XXXXXXXX#XXXXXXOXXXXXXX++****++X ",
"       XXXXXXXX++XXXXXXXXXXXXXXX#*****+X ",
"       XXXXXXXX#XXXXXXXXXXXXXXXX##*****X ",
"       XXXXXXXXXXXXXXXXXXXXXXXXXX##****XX",
"       XXXXXXXXXXXXXXXXXXXXXXXXXX+#****XX",
"       XXXXXXXXXXXXXXXXXXXXXXXXXX+#****XX",
"       XXXXXXXXXXXXXXXXXXXXXXXXXXX$****XX",
"       XXXXXXXXXXXXXXXXXXXXXXXXXXX$****XX",
"       XXXXXXXXXXXXXXXXXXXXXXXXXXX%****XX",
"       XXXXXXXX++++++++XXXXXXXXXXX%****XX",
"       XXXXXXXXX+++++++XXXXXXXXXXXX%%%%X ",
"       XXXXXXXXX+++++++XXXXXXXXXXXXXXXXX ",
"       XXXXXXXXX+++++++XXXXXXXXX XXXXXXX ",
"       XXXXXXXXX;;;;;;;XXXXXXXXX         ",
"       XXXXXXXXX;;;;;;;XXXXXXXXX         ",
"       XXXXXXXXX;;;;;;;XXXXXXXXX         ",
"       XXXXXXXXX;;;;;;;XXXXXXXXX         ",
"       XXXXXXXXX;;;;;;;XXXXXXXXX         ",
"       XXXXXXXXX;;;;;;;XXXXXXXXX         ",
"       XXXXXXXXX;;;;;;;XXXXXXXXX         ",
"       XXXXXX+++ooooXXXXXXXXXXXX         ",
"       XXXXXX+++XXXXXXXXXXXXXXXX         ",
"       XXXXXX+++XXXXXXXXXXXXXXXX         ",
"       XXXXXX+++XXXXXXXXXXXXXXXX         ",
"       XXXXXXXXX+++++++++++XXXXX         ",
"       XXXXXXXXX+++++++++++XXXXX         ",
"       ooooooooooooooooooooXXXXX         ",
"       ooooooooooooooooooooXXXXX         ",
"       ooooooooooooooooooooXXXXX         ",
"    oooooooooooooooooooooooooXXXXXXX     ",
"    oooooooooooooooooooooooooXXXXXXX     ",
"    oooooooooooooooooooooooooXXXXXXX     ",
"    oooooooooooooooooooooooooXXXXXXX     ",
"XXXXoooooooXXXXXXXXXXXXXXXXXXXXXXXXXXXX  ",
"XXXXoooooooXXXXXXXXXXXXXXXXXXXXXXXXXXXX  ",
"XXXXoooooooXXXXXXXXXXXXXXXXXXXXXXXXXXXX  ",
};
