/* XPM */
static char *bd850a86d1e6477da6b66e55f4e661a9hKMl5kxe8TlyZs4x[] = {
/* columns rows colors chars-per-pixel */
"100 100 58 1 ",
"  c #3E3315",
". c #3B3516",
"X c #3B3517",
"o c #3D3414",
"O c #3C3515",
"+ c #3F3514",
"@ c #3C3517",
"# c #3C3716",
"$ c #3C3617",
"% c #3D3717",
"& c #3F3816",
"* c #3E3817",
"= c #403415",
"- c #403515",
"; c #413617",
": c #443716",
"> c #403917",
", c #453817",
"< c #453A17",
"1 c #473D17",
"2 c #4B3F16",
"3 c #4D3E16",
"4 c #413A18",
"5 c #453B18",
"6 c #423C18",
"7 c #433D18",
"8 c #453C18",
"9 c #443D19",
"0 c #453E19",
"q c #4C4017",
"w c #484018",
"e c #4B4118",
"r c #4D4319",
"t c #4F4519",
"y c #4E461B",
"u c #504118",
"i c #504519",
"p c #544619",
"a c #50481B",
"s c #52481B",
"d c #534B1C",
"f c #544B1C",
"g c #564E1D",
"h c #594B1A",
"j c #594C1A",
"k c #5D4F1B",
"l c #5F531C",
"z c #61531C",
"x c #65571E",
"c c #65581E",
"v c #695C1F",
"b c #695D1F",
"n c #6A5D20",
"m c #6F6221",
"M c #6F6321",
"N c #766923",
"B c #7E7125",
"V c #877A28",
/* pixels */
"%X%-%X-*;$%%%X%-%%%X-@@@@ @-%% % %@%%%%-%-%% %%% .;@%%%%=%%X-X-@@@*%=@%-@;@@%-% ;$%-@;@;% %-@;% %%%%",
"%%%%X%@@$$%%% @@%%% @@XX***@%%%%%%$*% @@X%%%%X%%%%@@XX%% %XX%%*@@.%%@@%%@@$*%%%%$$%%@@@@%XX%@@.%%%% ",
"%.%%%-%%*@-%*@;**%%%*%..$$*$%%%%%@*@..@$ XX*%%%%*@@*% %%%XXXXX*X%%*@@%%%*@*@%%%%@@*%%$*$XX***%%%.%%%",
"%% %<%>>9594*59*%1<4%%%  @ $>555-@:@ %%@%**4%<->9;-5%%<% %X XX% @ *@-9%-9-%5>-%%55%-%*$$@.%@XX% .%%%",
"%% .XNNVVVVVVVVVVV5Nn@--$*%>NVVVV<B9X%-@X%VmVVVVVVVVVV541<%*%% XX%<-9rVmVVVVVVVVVVVV<B9XX%-@*Vwq%%@*",
"%. %@VnVVVVVVVVVVV9<<-@%*$%-NVVVVgV5%X;@%<<mVVVVVVVVVVVV%%%*%%%X%%X%-ig9MBNVVVVVVVVVgV<%%*@;r%4r %4@",
"%.%%@%NbVVVVVVVVVVn<@*XX$%X%NVVVVV1gg$@@-%%NNVVVVVVVVVVVVVX%%>X*%%%%%%45NmBVVVVVVVVVV9fg%X4;%9*4-%-@",
"%% %*-1bVVVVVVVVVnn@ * %%X% NVVVVVgV9*@@%%%fNBVVVVVVVVVVVVVV1*+%%%%X%X@;%1BvVVVVVVVVVgV<7%%@-*@-%X@@",
"%%% % XvNVVVVVVVbN-92*=%%%%%VVVVVVV9sg@@*%%%BBNVVVVVVVVVVVVVV5gr<***X%@;%%9BNVVVVVVVVV5gpy*@;@@-**;*",
"%%=%%%%<nNNNNNNmc*<N*@%%% %%NBBmBBNgB5**-*%=<NNVVVVVVVVVVVVVVVg*99*%*X-%%%*VmVVVVVVVVVV9w49@@-@*;@@*",
"+% =+%% vNNNNBNm-bi%*$*%% <<BNVBNBBNiig-*@-@1%NxVVVVVVVVVVVVVVVV**74%X%X%%--VbVVVVVVVVVV917%%X  ;$@*",
"  + + %*%:::<<-=---   %  2 %53i>ri-r%<-X--@  %<xnNNNVVVVVVVVVVVVVV*@*4X% %%>9NVVVVVVVVVVV19*X%%%$*@@",
"%XoXXXX#1955<g>*%%XX%XX%%gX%g5gg9gg5g%%%@%*%% %<xnNVNNNNVVVVVVVVVVVgi-%%-@@*%BNVVVVVVVVVVV91*%% ;*;$",
"XXX*XX*XXX*%%%%%%X%X%X%%X%%%X%%%%%%%%*%%%%@@%=- -><<nnNNNNVVVVVVVVVV9gi%;$$*5<BNNNNNNVVVVV9N9%XX$$$*",
"X*X******X%%%%%%%%%%%%%%%%%%%%%%%%%%%%%%%%% X%X% %kz555<NNnNNVVVVVVVV9<>%4%%%-xNNNNVNNVVVVwV99% ;4$$",
"**X*X*X*X*%%%%%%%%%%%%%%%%%%%%%%%%%%%%%%%%%%%X%XX%X%--z><9nNnNNNNNNNNpN=%@--%<z<<<-9<bnNVVV991%%$$$*",
"*+%%%%=%%%=%-%%% %@@-@4-%=%%%-@%X%-%;$**-%***@*@%%X%*@@$5--55nnnNNNNNN5>-%=  XX>-55n99NnNVVV11X ;$%%",
"X%XX%%%%X%%%%X..%%..@@@@%%% @@ %%X%X$$ @%%XX**@*%%%%@@*$**;--5,::>-5-: %%%X %%4**%%4--@nzbNNN<*o%*%%",
"%XXXX %o%XX%%%%  %. %%@*%%%%@**%%%%%@%@*%.XX*$%--X%%@*%X@%%@%%@4<9959<4%XXXX%%%X@*@@@;* bzbNNs< -%%%",
"%++ %% X*-%* %%%%%.% %@*>-%9@;%>5 =54%5-%-$$ *X%@%-%-%X%*%.@X%%%%%%%%%%*%%%%%%%%@**@;@@ -<=:%X %%X %",
"%% %%% <VVVVV9V5@@;@%%VvVVVVVVVVVVVVVVVVVVVgg*%X@*@%%-%%@*-%%%%%X*%%%%%%%%%%-%%-%-@@.%.@*%%<49%XX%%%",
"%% %%%X<VVVVVV55@;@@.%5vVVVVVVVVVVVVVVVVVVVV9gi>%%**@@*@@;@X%%%%%%%%%%%%-%%% %%X%%;@%%@@%%%%$*%X%%% ",
"%% %%-*VVNNNNNgN94%-%%%BNVVVVVVVVVVVVVVVVVVVgV<%%@@@5**$@44%@-%=X--%++%X%%X%%%X%.%**%%%%%%%%@***%%%%",
"%.%%%=%bmNNNVV5Ni%-%%%%5nVVVVVVVVVVVVVVVVVVVVgd9-;*@@@mN*@@@@%X%%X%%X%%%%XXXXX>NN*@ %%%%%%%%**@@%%%%",
"%.% %%3bv%<5:4N55-@@4%X%BNVVVVVVVVVVVVVVVVVVVgVs$;**%%BBVV4%%%%X%XX%XX%X%%%% %%%%55*%%%%%--%--*-%%%%",
"%%%-  %%-2<<nN5=V4%4@;%%NmVVVVVVVVVVVVVVVVVVVVws$$$@-*gNVVVVNN<%%>%-=%** %%%%%BVVVV5>XX%X%%X@@*@%%%%",
"%X %XX*<5XX%X%:5  %%;@*4%VnVVVVVVVVVVVVVVVVVVVgB4*-@%X*NVVVVVVVVVVVVVV1<%=.% %NVVVVVV<%X%%X%@%.*XX%%",
"%XX+X%%%*%%%%%%%%<=%@--@%5BNVVVVVVVVVVVVVVVVVVgN5@-%-%>MVVVVVVVVVVVVVVg==%%%%=NVVVVVVVVNN<%-*%@@%%% ",
"%X%%%%%%*%%%%%X%%%%-%%--% VnVVVVVVVVVVVVVVVVNnbiq%=%%%%mNVVVVVVVVVVVVV<:%X%X%%NVVVVVVVVVVVVVVV>-=%%%",
"%% %%%-%-X%$%%%%%%% % -@%%-VnVVVVVVVVVVVVVbnnbb=<%     qbxVVVVVVVVVVVnq-X%%-+%NVVVVVVVVVVVVVVV>+%%X%",
"%%%%%%XX@**$%%%% %%%%@*@=%%5mVVVVVVVVVVVNznb1-%%>% X %% iVbVVVVVVVVVNz%%*@-@X*VVVVVVVNNNNNNVVV% =X%%",
"%X+% %%%@@$$%>-%%%%% - %-%=%VnVVVVVVVVVzzN%*>4>%%X%X%%% 54NNmNVVVVVNz-%9**@@%=VVVVVNNbNNNVNNNV%%=%-%",
"%% *X%%%sNN5$*@-%%%%*@-  %% 4NVVVVVVVNzN4@ww*$$*$*$*%X%%%--nVnNVVVnz5%@*-@*;%5VVVVNjz4<<:><Nbx%>;*$*",
"%X%X-- %**@gVV@%%%%%@@@%=%-%=nzNVNNBzzN%$V@@*$***$*$%%%%@-<%r>NmNbz5%V@@*@@@%wVVVNz49-19:b<<9z% ;$$$",
"%X++%%XbVVVVVVV9 5>%4@%%- -% 5mzmVMbN<.VV*$**$;$$;$;%%%.@*$;455Vjj-*9%--%-4N9<VNzz7X%%X%X%*=%%  $$;*",
"%%%% %%NNVVVVVVVV%%%$*X%@@%-- :=3><i.%B%*;$$$$$$$$$$=%%%@@$$%@i%k>-<%%%%X%4n54mbNwXV%X%X **%%%% ;*$$",
"%% % X%<NVVVVVVVVV9>>>%%@$$$%%%*4g<%VV*@$$$$$$$$*$*XXX%%*$*@%%-% %<%%-%%-%N9>bb9%%N$%@**%% %X*XX$*$$",
"%X%%%%%%NVVVVVVVVVV<9<*%@*$$X%%%%X%%@@***$$$$$7Nr%@*%% %$*4@%%%-%% -=% $x---%%>%NB%*-@;;%%XX*XX+;$$*",
"%% %%%**NVVVVVVVVVVV59@5$*$$%X%X%%%%X%@*$$$7NN7$**-@%% %5@@@-%%%  =    $4%%*-99%%%$$$$@@%%%%%%Xo;*;$",
"%%+%%%X-NVVVVVVVVVVVV9**4;$*%>X%%%%X%X%%$7nN9#7Vgr;*%%..**7;@X%X%%%X%%*s5%%%-*>%%.$$$*$*+%%%%%X+$$$*",
"%X %%-%%zNNNVVVVVVVVVVw>.@@%% %=%-@*%%%%>NVwqVVVgr;*%%%%B$ $%%%%@*$$$$*$***@$*$$%%% X>n9%%%X%%X+;$$*",
"%%%+%+%+zNVVNNNVVVVVVVVV%%% %%X%%X*@%*>bN5-9VVVV99@@%%%%NVV*%%%%@**$$*$*@@**%$**%%X.7NV919%%X%% $*;$",
"%% %+o o <-5nNnNVVVVVVVm%<$*%%X% %*$%>NV9wVVVVVVg9@@ %%%NVVV<* %@@***$;$%%@@%%*@%X4nN7*1VVV**%X ;*$*",
"%XX %XX %5nn555nMNVVVVNM%**$ % %%4-@>%%%7VVVVVVVg1-%-%% NVVVVX% @-%@;$$$%%.%%%@$X9NV7wVVVVV9-%X ;$$$",
"%X%% XX% X%X-<<*VNNVVVM49@**X*%9VVVVVVVVVVVVVVVVgr-- XX%BVVVVw7%@$$$%%%%X %.$$gNN<>%<VVVVVV i%X%;4$*",
"%X %%%%%%%X%%-%%*NnBVN<s$$@*%%XwVVVVVVVVVVVVVVVV5>@@%%%*NVVVV1<%@ $@%%%%fNB<-4@**gVVVVVVVVV<% % $$$$",
"%%--X%%%%%%.%%%%%%NNVm*9$*$#Xr99VVVVVVVVVVVVVVVV94;@%%%%NVVVV<N%%-%  >%-%%%gVVVVVVVVVVVVVVN%X%%%;$;*",
"%X%--%%%%%%%%%%%%%*NM<i%$*;**Nw9VVVVVVVVVVVVVVVN:-*@%%%*NVVVV9N%=%%%%<vVVVVVVVVVVVVVVVVVVV<9%XX ;$$$",
"%XXX%%.@@@-%%%%%X**gM4s@*X%Xs79VVVVVVVVVVVVVVVNz-N%%@@@*VVVVV9N%@4%@@*nVVVVVVVVVVVVVVVVVVV*q&%X $*$$",
"%%%X%%XX%*%*-%%%*%%r<*@@***4V21VVVVVVVVVVVVVVzh<@4%--%@*VVVVV9V%;@-@@*nNVVVVVVVVVVVVVVVVVV1+%XXo;$;*",
"X*+X$%*-%%%X%%%%X*mm-7%*%%XrggVVVVVVVVVVVVVbzn9%>@-@%%*gVVVVVV<9@*;;%%5nVVVVVVVVVVVVVVVVVV<%%XXo%4$$",
"*X+**$$1<VV1%%%%%4M-*%X-%>>99VVVVVVVVVVVVNzzNX*V%4@@%%99VVVVVVqN@;@@%X-nNVVVVVVVVVVVVVVVVr+%%%Xo%$$*",
"*X%% %%<<VVVV9%-=%%5i%%%X%gggVVVVVVVVVVVnhn%$9N@%%%X-5w9VVVVVV9N5@*-$$*VnVVVVVVVVVVVVVVVV<-%%%%X-@*$",
"*X %%%>9VVVVVVVNm%-%%%%%%595NNNNVVVVVVVbz< %V;*@@-%%4V99VVVVVV995**%;$ *nnVVVVVVVVVVVVVVn4s%%%+o;@@*",
"**+*X%<>VVVVVVVV5<V%>%%-rbiiNNVVNVVVVVNz-*5*;@@;@@@9N9wVVVVVVVVw5@$$;$@@5nVVVVVVVVVVVVVNM*9%%%X ;@*@",
"XX X% 1VVVVVVVVV55X%% --n91r<5><nNNVVVN->>%%;*@*@@9N51VVVVVVVVV9V9$$;$@-%nNVVVVVVVVVVVVM-<%%%%X @*;*",
"%%%%%%iVVVVVVVVV5-@;* *%g%%><9nV5NBNVV<-V%%%%-@@><bV99VVVVVVVVVV779X%-%%%<NVVVVVVVVVVVn9g%%%-@X ;$$$",
"%% %%X2VVVVVVVVV%--*@$@7X%5%%;@@%9NzBV55%4%%@@@-4N9*9VVVVVVVVVVVw7<%@;%4%%nVVVVVVVVNVnb-%%%%@@%-$4$*",
"%. %% NVVVVVBNB9--%%*%.@%%%%%%-;%4%Vnm<-@@X%;@9NN9*9VVVVVVVVVVVVV1<%;@@@X%nVVVVVVNVczV>gX%-%*49%;$;$",
"%%% %%mBNBMMBNm13 %%@*@@%%%%%%X%X-%-iV%-@-%X@zN9@2VVVVVVVVVVVVVVV1<<@4;@%%nnBNNVNzM>N%5<%-%%@s%%;$$*",
"%% %%+zBNNmmr<g%%X%%%*X*%%---%%XX%%%g %% =%%%9@wVVVVVVVVVVVVVVVVVV1<==+X  <vNVNNz4n-.V,@%%%%>v%%;$$*",
"%.. %%=i1r*%g>*%9$%%-X%%%X@@%%X%% %X% % %% %%*9VVVVVVVVVVVVVVVVVVb<3= % % ==3-4B:-;@V.-@%%==k<=X$*$$",
"%X% XX4w711g%%%%$*$$@@$**@@@%%%XX%X%%X-%% =%%<NNNVVVVVVVVVVVVVVnzu:+%%Xo%%%=5n<5@*-*@-@-%==z=%$%;$;*",
"%%XX*X*XX*%%%%%%*$$$**$$@*dB9i-%%%4%X% % %  %hnVVNNNNBNBNBNBNmzii%%XX%X%X%%% %*-@ @;-%*;++%%%%$*;*$$",
"%% %%%%%%%%@*@$$%%%%*$**45%-*>*1<%%%%%@*$$%-% -<:bnmNBNBNBNBnjhXX% %%%%%%%%%%%%% @ -X%=  XXX*%%%$*$*",
"%X% %%%%%X-@;*$*%%.%*@ $%rVVVVV%%%-%%%*@$*%%X$>zn55<-r<34r<q-*XX%%%%%%%%%%%%%X%>%--@ X%%%*%%%%X+;$;$",
"%X%%-X+=%%X $**$@*@@@*@@%NNVVVVVV%%%-4*@X%X%$$$*%% r7g<g9g9g>%X%X%%%=%%=%%--%%X%$$@@*X@$%%%%+%X ;*$*",
"%% %%%X%%X%%*@$*s-<%$$@-%<NVVVVVVVV%@@;*%%%X*$*$%%%X%X%%@@@*%%%%%%%%%%X%%X%%%-%X$$$*$**$%==*%XXo;$$$",
"%X %%XX*%%%fBNg-4*>%%-%%XXbVVVVVVVVV5%9*-@@@**$***;@%%%%@*@**$$$%%%%X#*XXXXX %%%$*%%%%*$%XX%%%XX$*$*",
"%%% X*%% %%%4%gVV9V>;@%4**mVVVVVVVVVVV%@@@-@$;***@*@%%%%$$*@$ *$%%%%oX-N%%%=X %%*$X%;-$$X%%%%X%+;$;$",
"%%%% %% %5nVVVVVVV<9@;@@*XNNVVVVVVVVVV91*%%@$*;@$;-@X%%%$$*$*$$*X%%%<***X1VVVVX%;*%X@@@$%X%%<N%%$*$*",
"%X <%%%X%%NNVVVVVVwN@4@@%*1NVVVVVVVVVVV59-.X$$$$*$%X% %%$$ $$$$$X %-%X%7VVVVVVV%$@%%*@*$+%>N<%%+;$;$",
"%X *%%-;@-9nVVVVVV2B*@;@%%@nVVVVVVVVVVV995@@-@%*$@@@%% %%%%  $$$% X%%5VVVVVVVVVV5%X%%%**+%=**17*$*$*",
"%%*q4X%-@@*NNVVVVVgV*;@@%--nVVVVVVVVVVVV<54;@-%$$4b5%%%%=%%%**$ X%X1VVVVVVVVVVVV95<=%%$*%>NVVV1<;$;$",
"%X%V5%4@*X@VnVVVVVV9s$@4X-@VnVVVVVVVVVVVw9:-@@**%%NVVVVVVVV=$$;$%%*VVVVVVVVVVVVVV25% %@*><NVVVg>$*$*",
"%X -5X%;%%7>NNVVVVV9N$;;%X*9nVVVVVVVVVVVVq9*;;*@%%NVVVVVVVV=;*$$%%<VVVVVVVVVVVVVV7N-%%;@%%NVVV1<;$;$",
"%% >N1@;*X$*9NVVVVV9N9%@%%%XNNVVVVVVVVVVVV*--@@@--VVVVVVVVw4-$$; %<VVVVVVVVVVVVVV9V$%%-@%%NVVVw*;*$*",
"%X%<V14@@-*$-NVVVVV9V5X-%%%%9NVVVVVVVVVVVN;4%%*@%5VVVVVVVV1*;;$$% <VVVVVVVVVVVVVVV9;--@@%>NVVV94;$$$",
"%X%N59%-4@*$4NVVVVVV29---%%%*NVVVVVVVVVVVN%%@4@@%5VVVVVVVV<*$;$$%.vVVVVVVVVVVVVVVVw4-%%%%%NVVV15$*$*",
"%%%NVw-%@@@*%NVVVVVV9V-% %%%*NVVVVVVVVVVV5@-@@@=%<VVVVVVVVq7$;;$% bbVVVVVVVVVVVVVV5;%X%%%%NVVV94;$;$",
"@@@NV5:@ %%%>NVVVVVVV5--@@@;>NVVVVVVVVVVM-5%%%-%*<NBBBBBBB9M%%%%% 1xBBBBNBBBBNBNBl--%%%-@@NVVV55;*$*",
"*@-NV5--%%%%XNVVVVVVN:-%@@;**NVVBBBNBBNNc* %%%%%-9BBBBBVNB5MX%-+%%XmcBNBBBBNBNBNnz--%% %%%VVVV5r;$$$",
"*$-NN-4-X%%-%VVVVVVVN=>X*%-@@BNNBNBBBNNz- %    %-i5rrqrrri%3=-    *%3rrr<rir25r<q*@-% %%%=VVVV54$*$*",
"$$@NN;9@%X%%%VVVVVVV:%x %%@;*NNNiii5is>*%XX%%%%*%ggggggg9g4%-%% %%*Xsr5gggg9g5g5 -@;%%=%%5VVVV95;$;$",
"*$*N< =@>@@*<VVVBNNj--%% %%%-s24s9sgg>2%%%@*$$$$%%X%$$$$%%%.%%% %X%X%%X%*%%X%%X%XX$* @-%%5VVVV14;*@*",
"$$@x:%-@%-%%9BMMBnzf%% %%.%%@9gg% %%%%%%%%@*$*$*%%%%*$$*%%%%%%%%%%%%%%%%%%%%%%%X*-;$X%-:95VVVbw%;@@*",
"%X%l %-@-%%=1NMmr*4$% %%%XXX$**@%%%%%%%%%X%@*$*$%%%%**@@%%%%%%%%%%%%%%*@X %%%%>-$;;$% %p<9Nnzz4 @*%%",
"%% %%=%@ ===>s*%a@*$%%%%%%%%%$**%%%%%%%% %-@;$$;%%%%@;@-=%%%%%%%=%%%4@;@-%%%-X%%$$$;%%%:4bnbv%%%;@-%",
"%%%%%X%%X%%-9<9g%%%X%%%%%%%%% %%%% %X%%XX%X%X%X% %%%.%%X%%%X%XXX%XX%X% %%%%%%XX%$$@--%==-:>%%%%%@@4%",
"%X % %%X% X%%*%%X%%%%%%% %%%%% %.%%X-XX% XX*%X%>%%%%@4-%%%%%X%X % %%%%%%%%%%% XX***X%X%%>4%<5%  ;@%%",
"%X%%%%%%%%%%**%%%%% % %%%%XX**X%%.%%@@*%%%**%%X9<555*45555-@ X%%X % X<<<91**<55X@%X%X%%X%%%%*XX+-@%%",
"%% %%%%%%%%%%%X%X%%X%%%%%X %X*1iBVi@@*X oXw<%1VVVVVVVVVVVN5><X%%X%%%1VVVVVVVVVVX> *X%XX%%%%%*XX -%%%",
"%%%+  %%%+-%% % =X%-% %=%>NNr1**92i*-%%%**>=2BBBBBBBBBBNBm-5@--%%+<>4BBBNBBBBBN1%%  #%%% %+*XX% %%%%",
"%X +%%X %%%%X%%%%%X%+%1% *42sNBVBB14-==% X=<BBBBBBBBBNBBB<--*@@%%*M19BNBBBBBNBB<<%% *X==+%%X**X **%%",
"%XX + -   %%=  %  - % -%iirirrr%ii@*  %  %=qiiiiiiiirri<i= %-%   2%=%rii2rrqri7%3+  o o+ %%+++X *@.%",
"%%X%XX %X% %>-%X%X%%XX4iggggg<gggg4i%%X%%**rggggggggg9ggg%% %%*$%%*-gg1ggggg1gg>r%X%XX #o%XXXt%X@@@%",
"%XX%**X%X%$$$$$$$$$$$$$$$$$$$$$$$$$$$$$$$$$$$$$$$$$$$$* $$$$@*$$%% %$$$$$$$$$$$$$$$$$$$$$$$$$$$%%%%%",
"%%X%>X%%%%***$$*$**$$*$**$$*$**$*$$*$**$$*$4$$$*$**$$*$*$$*$@@$*%%%X*$$**$*$$**$*$$**$*$$**$*$*$%%%%",
"*XX%X%%%%X%@$**$*$$**$*$$**$*$$*$**$*$$**$*$$**$*$$**$4**@$*@4%%*%X****@$*$**$$*$**$$*$*4$$*$$$*%%%%",
"%+%% %%+% X-$;;$$$;$;$;$;$$;;$;$$;$$$;$;$;$$$;$;;$;$$$*@4@@$@-%%%-X%@;@-;$$;$$;$$;$;;$;$$$$; *X;.%%%"
};
