/* XPM */
static char *_0592e0026704067ac37b440170131c4e1Yv2l2FvGvrxh4B[] = {
/* columns rows colors chars-per-pixel */
"100 100 79 1 ",
"  c #3E3315",
". c #3B3517",
"X c #3B3616",
"o c #3D3414",
"O c #3C3515",
"+ c #3F3514",
"@ c #3D3416",
"# c #3E3517",
"$ c #3C3716",
"% c #3C3617",
"& c #3D3717",
"* c #3D3817",
"= c #3F3816",
"- c #3E3817",
"; c #3F3917",
": c #403415",
"> c #403515",
", c #403516",
"< c #413617",
"1 c #403717",
"2 c #453516",
"3 c #443616",
"4 c #403817",
"5 c #443817",
"6 c #453A17",
"7 c #473D17",
"8 c #483C15",
"9 c #4B3F16",
"0 c #4A3F17",
"q c #4D3E16",
"w c #413A18",
"e c #433A18",
"r c #453B18",
"t c #433D18",
"y c #443D19",
"u c #4C4017",
"i c #484018",
"p c #494018",
"a c #4C4118",
"s c #4C441A",
"d c #4E461A",
"f c #504118",
"g c #504519",
"h c #544619",
"j c #50481A",
"k c #50481B",
"l c #534A1C",
"z c #544B1C",
"x c #564E1D",
"c c #594B1A",
"v c #5A4B1A",
"b c #594C1A",
"n c #5D4F1B",
"m c #61571B",
"M c #61531C",
"N c #60531D",
"B c #64571E",
"V c #65581E",
"C c #695C1F",
"Z c #695D1F",
"A c #6C611F",
"S c #575130",
"D c #6A5D20",
"F c #6F6221",
"G c #6F6321",
"H c #766923",
"J c #796D23",
"K c #7E7125",
"L c #676034",
"P c #766C30",
"I c #7E763F",
"U c #877A28",
"Y c #847936",
"T c #847839",
"R c #8B7F3B",
"E c #867B4A",
"W c #93873D",
"Q c #90854D",
"! c #9E9350",
/* pixels */
"&.&>&&>%-%&&&%%>&&: %<&&&&& &&&&&>- %&>%&&&&&&%-& <%%&:&&&&& &>%%-%& %w& >-&&&&&>%%-%><<%%-&& & WUJU",
"&&&&&&%%&-&w& &%&&&&%%.. &&&.& &&%%%-%%%.&& & -%%%&-% &&& ..&&%%%%&&&%%%%%%%&& &% %-%%%%%%&&%%&&WHUU",
"&O&&&>&;%%%%&&%<&&&&%..&..&&.&&;&%%%..&&-%&&&& -%%%%&&&& ..OOO%. %%:&& %%% %&&-%%%%%&%....&   %&WGJU",
"&& &6&&;rrr>&yy<&66r .%-  . rr66& <-.   %->&&6>%r5%r&&6<& .&.&% %% -&r%<r5%yww>%rr-> -%  . &&%&%WUJU",
"&&  .WWWWWWWWWWWWWyHZ&&&.;&>WWWWWwUy.&&&& WWWWWWWWWWWWS%yw%.%%&&%%r%yaWWWWWWWWWWWWWWSRy&-%-<.Ua0WUJU",
"%O:&%WDUUUUUUUUUUWyr2o& &&&&WUUUUzUr.; &&r6WUUUUUUUUUUUW4%-r%%&&%-%%>gzrWJHUUUUUUUUUxWr&%-&>d.r0WUJG",
"%%%&%WWZUUUUUUUUUUZ2& &&&.;.WUUUUUyzx%&&&&&WHUUUUUUUUUUUWW-%%<&&%%%%%--yWWKUUUUUUUUUWykx%%%--t&6:WUF",
"%%&&%>7WUUUUUUUUUDZ&&&&&& .;WUUUUUxUy-% &&&WHKUUUUUUUUUUUUWWr% &-%--%<<%rrWDUUUUUUUUWxUry%-%<-&:%WUJ",
"&&o&&.;WHUUUUUUUZH&7t;:;&&&&WUUUUUUrzx&&&>&&WKHUUUUUUUUUUUUUWyhjt-%..;:>%-rWHUUUUUUUUUyxgg-%&:&&&WUA",
"&&:&>&o>WHHHHHHGV;6H&&&&& &&WKKHJUHgK6&&>&>&6WHUUUUUUUUUUUUUUWxw7w%w;.&&>%%WFUUUUUUUUUUyyry-&%& &WUZ",
"&o :&&& WWHHFUHG:Zh&&&&:& r6WWKKGUKHxuz&&&&&rwWBUUUUUUUUUUUUUUWWw-t<&&&&-%>-WDUUUUUUUUUUyar.%-  >WUJ",
":o>o > &>2262w> :: &: :  q %rag2aara:&2&      rWDHHHUUUUUUUUUUUUWW-.&;.&%-&wyWUUUUUUUUUUUyy%-%% >&WU",
";o.o.&..7yttyx44&&..&..&&x.;xyxxyxxyx<w&&&% >% rWWWWHHHHUUUUUUUUUUWxdr%->%-%%WHUUUUUUUUUUUyy--%&--%W",
".&.....;%%%.&&&;&.&.&.&&.&.&%--%%%-%%%%% &O&%<>->664WWWWHHUUUUUUUUUWyxf%<-%-yyWHHHHHHUUUUUyHy--%<%&W",
";.;.-%-%w.&&&&&&&&&&&&&&&&&&-%-%%-%-%-%-&&&&%%%% &nMrrrrHHDHHUUUUUUUWyr-<%- %>WWWWWWWJUUUUyUry% >&%W",
".;.;%-%-.-&&&&&&&&&&&&&&&&&&%-%--%-%-%-%&&&&%%%%.&&&>>M>yrDHDHHHHHHHHzH>>->%>>M6rr2r-DDHUUU7yy- %w%%",
";..o>;>%%>>%-&& >&%%>%-<%>%-&%-%:-%- &:&> &&&&&&&.&.%%%%<r:rrDDDHHHHHHr&>&>  ..wr5rDrrJCHUUUw0& >%%%",
";!;.;.%&.--.&&.&&&..%-%%%--%:%%%%%-%%&&&&&&&&&&&&&&&%%%%% <<>5r2r>2>26& & &  &w&%%%<:&&CMDHHH6&:>%>%",
"YWW.OO%&%..-&  .OO. & %&-%&&%-%%%-%%% &&&&..&:&:%-&&%%&&%%%%%%%rwyyryy;&%%O.&&&&%%%%&: &DMDJHgw&<%%%",
"JJW %& &->%<&&&&& .%. &&%>>y<%><y%>y<%r&>&&.. &.->>&>&&&-&%%%O&&.&&&&&&&%-%%&&&&w%>%%%&&>>>>2-  >%&%",
"JHUW%& rWWWWWWWr%-<-& WEWWWWWWWWWWWWWWWWWWWxx;&&%-.%%% &-%-<%-%-&&&&&&&&%%&&&:&&&<%-.&.&-&wrwy%% &&&",
"JUUW%%&rWUUUUUyy%>%%&&wWUUUUUUUUUUUUUUUUUUUWyxz&%  %%%&&<-%%%%-%&&&&&&&&%-&. %.& %&%&.&.-%..&&%%&&&&",
"FGUUW>&WUHHHHHxHy%->%-%WTUUUUUUUUUUUUUUUUUUUxUy&-<-%rw&&%%%<>-%>&>>&>>&.-&&&%.&&   %&&&&&&;&&&&&&&&&",
"ZPUUW&:WFHHHUUrHk<%>-%-yWUUUUUUUUUUUUUUUUUUUUxhy%>%-%%WW%&%%%%%-.&&&.&&&%-OO%&wHH&&&&&&&&&&&&&&&&&&w",
"AIUW& 0WW>7rw>Hrr%%%-%&%WHUUUUUUUUUUUUUUUUUUUxUd&-&&&&WKWWr%&&.&%%%%..&&.&&& >&&%yy%>%-&&o&&>>& &&&&",
"JUW>  &&&666DHr<U5>>%<& WFUUUUUUUUUUUUUUUUUUUUtx&% &>4WHUUWWQQ6&>w%>>%&&&& &&&WWWWWyw.&&&.&&&&O&&&&&",
"JJW&&o&6y..&%->2  %%>-%5<WDUUUUUUUUUUUUUUUUUUUxK>%&&&&wWUUUUUUWWWWWWWW06&&.&&&WUUUUWWt& &&&&& O . &&",
"JJW>&&&&;&&&-%-&%r -%><%%rWHUUUUUUUUUUUUUUUUUUxHr%>&>&%WUUUUUUUUUUUUUUx&&:&&&>WUUUUUUWWWW6&4&&&&%%%O",
"YW &&&&&&&&&&&&&->-:%%>%%%WDUUUUUUUUUUUUUUUUHDDga%>%%%>WHUUUUUUUUUUUUUr>& &&  WUUUUUUUUUUWWWWW4:%%%-",
";& &&&&&>&>&&&&&-%%>%>>%&w>WDUUUUUUUUUUUUUZZDDD r: : >>WWDUUUUUUUUUUUDa &&&&&&WUUUUUUUUUUUUUUU4:>->-",
"..&&&& .&.&&&--&%%%%%%%%:&&yWUUUUUUUUUUUHMZZy&;;<. % %%>WWWJUUUUUUUUHM &&&&&& WUUUUUUHHHHHHUUU&&>%-%",
";.&&&&&&&...&>&&%-%-&<::>>& WDUUUUUUUUUMMH;.46w%%%%%-%-%2wWWGHUUUUUHM>&r&&& &&WUUUUHHZHHHUHHHU&&%-%-",
"&.&& & &lHH6& &&-%&&&&> :%-%yWUUUUUUUHMH7.tyw&&&&&&&-%%%-><WWDHUUUDMr%%-%&&&&0WUUUHcM&6626>HDV&4w%%%",
"&.o4&&&&&&&xWW&&%>&&&&&&  >-:WMHJHHKMMH&&U%%&&&&&&&&%-%-%>5 WWHFHDMy-U-<-%%>&yWUUHM&0;y6:Zy6yM.>%%<,",
"&&o>& .WWWWWUUW0&r>&&&&&< >%:rWWHUFDH7.UU&;.&&&&>&&>-%%%-%%<>yyUbb>&y->%-%>HyyWHMM0.&&&&&&o2>&  <<%%",
"&.&&. &WWUUUUUUWW&&&&&&.%%&>  >>fr2f.&K&&&&.&&& %&&&>%-%%-&%<%g%n>>y%>%-%%<Dy6WWWw.U&&&&&&;&&&. %%-%",
"&.&& &&rWUUUUUUUUWrrr4&.%%%%.&o4&x6&UU&&...;-... .:%%.%-&&&&-%<-&:r>%<%<>:Hy<DDy%%H&&&&&&&&..;.o<%%%",
"&&o&&&.&WUUUUUUUUUWyyr;&-%%%&&..&.&&&&.&;.;.%%tHk >-%. %&&&&%-%<&  &:&< D>> -%%-HJ>&&>>&&&.&.+.:<%%w",
"&& && &&WUUUUUUUUUUWyy%r%-%-&&&&&&&&&.&&.;.tHHy-%w%%%%>%><&&%%-%%&>    .%-%r>yy%-%&..&&&$&;.;..o%-,%",
"&&&>&&&>WUUUUUUUUUUUWy%><%-%&&&&&&&&&&&&.tZH7&yWxa%-%-%.%%r-%-%%-%%.. &gy%&%----%-&.&.& .;$;.;. %-<%",
"&WW>;&&oWHHHUUUUUUUUUWy<.&&&>&&>&&&&%.-.tHUtpWWWx7<%&&& R%% %%-%%-&%%%w&&&&&&&&.&<-%%wDy-%-%;..&%%-%",
"WUWW&>&;WWWWHHHUUUUUUUWW.. .&&&.&&&&-.tDHt-yWUUWyr--&&&&WWWw%-%--<%%-%%%&&&&:&.&%%%%tHU7yy&&.;.o%<%-",
"UJUW&o o:>&rWHDHUUUUUUUG&6&.. && & &-yHUy7WWUUUWxy-%&& &WUUWy>&:%%%%%&&%&o&&;&;&%%rDHywyWWW&o&. <%-%",
"UZUUWo. &6DDrryDGHUUUUHG 4&-&& &&&>&>>&&yWUUUUUWLr<% &&&WUUUW &&%->%-&& &&&&&...%wHUt7WWUUW8;&. w%%-",
"JAJUW &.&& %>>rwUHHUUUG-r.-%.-.pWWWWWWWWWUUUUUUUxa>5%-& WUUUWy7;&OO.&&&&o&OOo;dHHy%-yWUUUUU d&.&>&&>",
"UmAJW&&&&&O.%&&--HDKUHrj-%%----yWUUUUUUUUUUUUUUUy2-%-%&&WUUUWy6&&&O..&&&jJJ6;+;;%xWWWUUUUUU6. . >&&W",
"AAJJW;&&&&&&%w.---HHUG4y%-%--ppyWUUUUUUUUUUUUUUU5r%-%-%-WUUUWtH&%<&&&>>;&&4xWWWWWWUUUUUUUUHw&&& &4>Q",
"AADUWW>&&&&&&&%-%.>HG6g&-%--<HyyWUUUUUUUUUUUUUUH2%-%%>-%WUUUWtH&>& &&rWWWWWWUUUUUUUUUUUUUUr<&&. &&-T",
"AcJUUW&O&&>%%%-%&&&xG&g&&&&&gyyUUUUUUUUUUUUUUUHM>H%%-%- WUUUWyH%%,%%<%WUUUUUUUUUUUUUUUUUUU4u&&..>%WJ",
"UmUUUW &O %w>-%-&&&d64&&&&&>UypUUUUUUUUUUUUUUMvr%r%%%-%-WUUUWtU-@,<%%%WJUUUUUUUUUUUUUUUUUU7:&&. >WUJ",
"AAUWWW&&.%%%-%-%&&FF&6&&&&&gxxUUUUUUUUUUUUUDMDy%-%><-.rxWUUUUUyr%%>%%%yQUUUUUUUUUUUUUUUUUU6&&&. WUUJ",
"JUWW&&&0tWW7%-%-&rF>&&&&..ryyUUUUUUUUUUUUHMMH@%U<-%%>%ryWUUUUUyJ-><<%-<QJUUUUUUUUUUUUUUUUd& &&WWUJJJ",
"UUW&&&4yyWUWWy>w>%%6g%-%&&xxxUUUUUUUUUUUDvD%%yH%%%%&&ry7WUUUUUyJr&&%&&&WCUUUUUUUUUUUUUUUUr>;&&WUUUFJ",
"UWW&& 4yWUUUUWWWW%%w--%-&wyyHHHHUUUUUUUDM5:%U><%%-%%rUyyWUUUUUyrr& <:&&%WCUUUUUUUUUUUUUUZ>j&&&oWUUJJ",
"W.&&&&64WUUUUUUUr5U<%-%>jZdgHHUUHUUUUUHM-%y%<-%&-&&rHyyWUUUUUUUyr%%&%%& 8WUUUUUUUUUUUUUHG&r&&& &WWUU",
";.&&& 6WUUUUUUUUrr-%-%>>Dr6a6r66DHHUUUH>%r-%% %-&&<HrtWUUUUUUUUyUr%<>%&%+WHUUUUUUUUUUUUG>y&&&.. -%WU",
"&& &&&jWUUUUUUUUy>&>:%%>x%%rrrDUyHKHUUr>U&&&& %%%rDUyyWUUUUUUUUUyyy&&>%<&6WUUUUUUUUUUUD6x&&&&&& -% W",
"&&& &&0WUUUUUUUU%%>&%%%r&-y%%<&-%yHMKUrr&&& %>%>wJy%yWUUUUUUUUUUy7r;&&%&&&WUUUUUUUUJUDC&&&&>&&%><-%-",
"& &&.&WUUUUUKHKrr< %:%%%&&-%%%%><-%UDGr>&&&o-&rHJy-yWUUUUUUUUUUUUy6&>%%<&&WUUUUUUHUBMU&x&&&&&<y-%--%",
"&. && WKHKGGKHG77 % %%%-&&%%%%%%><->fU&>&&&&&MHr&yWWUUUUUUUUUUUUUyr6%5>%&&WWKHHUHMGwH&r6&:&& k%%>%%-",
"&.&& :WWHHGGdrh&&&&&-%&&&& >>-%--.% x %-& &&&0&yWWUUUUUUUUUUUUUUUUy6: &&  6WWUHHM<D .U>:&&&&rD%%--%-",
"WW. &&:g6d;;gy4ww&&&< &&&&%%%%-%%%-%- % &&:&&>yWUUUUUUUUUUUUUUUUUZ6q:    o>>q64Kr><-U&>&&&:>ny< >%%%",
"UUWo%.y7tttx..;.&&-...&&&&%&.%&&-%& &&>-  && 2WHHUUUUUUUUUUUUUUDMf&>&&.&&&&>2Drr%% %%<%<>:>M:%% >%%<",
"JUWo..-%%-.;&;.;&&%--%. &&xJrd &%-&&&&&%:&  &WWWWHHHHKHKHKGUHGMfh&&o&o.%O&&&&&&>% %<>>->&>%%%%%%<-%-",
"JJW&&&&&-%-%%w&& -%-%>%%yr&><w%yr%w&&&%%%%>>:><rWDDFHUFJJJHUDhc...%%%-%-&&&&& & &%&> >> %&%%-%% <-%-",
"JJW&&&&&%-%%<%. %%%%-%%-&aWWWWW-%->&&&-%%-%%%%<MD5rr>a2ay7r02&...-%--%-%&&&&&&&&& <> %%%O6%-%-%%%--%",
"JAW&&& :%%%-%&&&%%%-%%&%&WHUUUUWW%-%>&&-%%%%%%%%%- drxpxyxyx&  -.4&%>%%>& o&&&&&%%%%%%&%%%%%>-% w%<%",
"JUW; &.;-%%%&&&&zwr .. >&WHUUUUUUWW%&&>%--%--%%&%%%%.%%--%% &&%%-&&O-%%-&&&&&&&&%%%%%%%-%%>-%%. <%%%",
"UW &&&o.%%%zKHz<%%&&&>%&&&WUUUUUUUUWy>y%%-&&&&%-&&&&%-%-&&&&w%%%%%%-%&&O&&  &&&&%%-%-%%%.&&&-%.%%-%-",
"UW& .&&&->>--<xWWyU6>&-%&;WUUUUUUUUUWW%%%>&&&:-%&&&&-%-%w%&&%%%%%.-%&&>H &&&O& &w%%<>-%%&&...%w><%<%",
"U&&& & .%yWWWWWUUUyy<<%%& WHUUUUUUUUUUyy %%& %&%>%%&&&%-%%%% %-%-.%-r<%%OwWWWW&&%%%%%%%%.&w&&H&&<-%-",
"& &6.&;.-%WHUUUUUUyJ&%<%&&rWUUUUUUUUUUWyr%&&%%& >%% &%-%%%&%-%%%&%->%%%yWWUUUUW.% &%-&%@..>H8&& %%<%",
"&&.&%%-<-<yWUUUUUUwU%--%&&&WUUUUUUUUUUUyyr%%%<  %%%%%-:%--%&%%.%& &O.tWUUUUUUUUWy%%%%%-%&>&&o074-%&@",
"&.&u>&%>%%%WHUUUUUzU&>%<&&&WUUUUUUUUUUUUyr<<%&%&%rWr%%%>%>&& % %&O.6WWUUUUUUUUUWyyr>%  -.0WWWWp4<%%,",
"&&&Ur&%<%>-WDUUUUUUyg%-<&& WZUUUUUUUUUUUyyr< %&&%%WWWWWWWWW:<%-<.&6WUUUUUUUUUUUUWyr%<->%;tWUUUxw>-%-",
"&&o:y%----y%WHUUUUUyH-%<&&&rWUUUUUUUUUUUUyr>-<&&>%WUUUUUUUU:<%%>.&6WUUUUUUUUUUUUUyH>-% &.oWUUUy4%-<<",
"&&&6Hr%<%-%-rWUUUUUwHy<-&&&.WHUUUUUUUUUUUUr>%&&&%>WUUUUUUUyr>w%%&&6WUUUUUUUUUUUUUyUw&&&&;4WUUUpw<%%%",
"&&&&Ur<--%-%%WUUUUUyUr%<&&&&6WUUUUUUUUUUUH>r% &&%rWUUUUUUUt<-%%%& 6WUUUUUUUUUUUUUUy>>&&&.4WUUUy4-%&%",
"&& Wy7><>%%%>WUUUUUUyr>&>&&.>WUUUUUUUUUUUH<%&&%<wrWUUUUUUU7r%<%%&&WUUUUUUUUUUUUUUU7w &;.;.WUUUy6<-%-",
"&O&WUy>-<%-%-WUUUUUUyU>>&&&&4WUUUUUUUUUUUr:<&&&% rWUUUUUUUtt->>-& WCUUUUUUUUUUUUUUy2;..;.;WUUUy6>%-%",
"%>:WUr2->-%--WUUUUUUUy>&&&%%%WUUUUUUUUUUF&>%&:>&>yWKKKKKJJ4G&>&>&&rWUJJHHKKKJHJHKM2>-&&<%&WUUUyr<%%-",
"%%%WUy><%%-%%WUUUUUUH2>&&&<&%WUUUJJHUJHHC:>%&&%%>yWWKKKKHUyG&&> :& WMUHUKKKHJHUHCM&>%-& % WUUUyp>&>%",
"-%-WH>>%-% >%WUUUUUUH><%&&>->WHHUFUJJHHM% : &:  >grgkaqfag&0&  >  :&W7agrgaafra66&&> %-%%<WUUUyr&&>&",
"%%%WW>r%%--%-WUUUUUUr>V  &%<%WHHWadrfkr&&%%%%%%%%xxxxxxxyxr>&&&&%%&&WWyxxxx0xyxr>>&>-%<-&rWUUUyr>&&&",
"-%-Wr:>%-%%:yWUUUHHv>>%--% ->WWWjyzxx40&%%w%%%-%%%%%%-&&%&&&-%%%%%%%&%<%&&&.&&..&>%> %>%&yWUUUy>>&&&",
"%% W2%<%%&% yWGGWVMc-%%%%..%>yxx& %%&&&&%<%%%%%<%--%-%&&w&&&%-%-%--%%-%-&&&&&&&&>&%%%>>2yyWUUDp>&&&&",
"%%%W:%>&%%-<yWWWa%y%%%&@& %%%%<-&&&&&&&&-%-%%&&%%-%-%%%%&&&&-%%-&&%--%%%&&&&&&&;--%<%%%h0tWDMMr%:&&&",
"-% %%  :&> >>g%rd -%- %%%%-%--%-&&&&&&&&%-&>-&&>-%-%&<%>:&&&>%-%&&-%%>-%>&&&>&&>%%&>%>%5&WWWW% &&&&&",
"%- %-%-&& &&7tyx&&&&&&&&-%&&&& &&& &&&.&OO&&&.&&%&%%%-%%-%%%%%.%& %%%%%%.&.&.&.&&.&&>&  >24&&&.oWW&&",
"%% -%%&&&&&.&&%-&&&&&&&&%-&%&&&&&&&&&&&..O&&&&.4%%<>--<-%%%%%%. % :%%%%-.;;&&... & &&&&&;6&y7&&oWUW&",
"%%%%&&&&&&&&&&&%&  & &&&- %-%- &;&&&&&.&.%-w&&4rrrrr->yyrr<%& %& % %%ryr67w>667.&.&.&.& ..;.&&.oWUWW",
"-%>%&&&&&&&&&&>%;.&&&&&&%&.%-%rjKKh& .& . 7y.7WWWWWWWWWWWTr>6&%%%-%%yWWWWWWWWWW.> &&&&&&&&.;&.&oWUUU",
"WWW&&& :& :&& & .&&& &&:&&JJdr%>7yj>&:&&%%2-yWUJKKKKKKKHJD>r->%<&&&67WUHHKKKKKJy%& &&&>& & &&& WWUAU",
"UUW. &&&&&&&&&&& & &&:8&&&6yzHKKKKyr>:&&- >yWWWJKKKKKHKKUy55%%-%>>F0yWWUKKKKHKKyy%& &&>&o&&.&&WUUUAJ",
"UUW       &&:  &&   %&->fgagfagygg&>   & &>0gggggggggagra> : :&  q-&>g8a6gdqdg>>q&  o   o&& o WUJJJA",
"JUJWWO&&&& &&>.&.&..%%>gxxxxxyxxxx>d&&.O&&4gxxxxxxxxxyxxx%%%%%%%&;%<xxrxxxxxyxx4d& &..&&o&o&&dWUJAUA",
"JAJUW&&&&.&&&&O&-&%%%%w%%%%%%%%%%%%%%%%%%%%%%%%%.%%%%%%%%%%%%%%%.&.&&&& &.%%%%%%&@%%%%%%%%%%.&WUAAJJ",
"UCJJUW&&&&&&&&&&%-%%%<%%%%-%%-%w%%<-%%<-%-%-%w%%-<-.%---%-%-%-%-&&&&&&&&&&-%-%%--%<@-%%w%%%w&&WUAAJJ",
"UJAJUWW4&&&&%%&&-%%%-%-%&&%-%-@<-%%-w%-%-%-%%-%-%-%--%w%-%-%%--%&&&&&&&&&&&%&&-%%-%%%%-%<%%-4;WUAUJJ",
"JJAJJUW:&&&o->& >%%&%-&>&&&%@,%>%<%%%%%<%%<%<%%<%%<%%%& %<%%%<%< &&&&&>&&& <&&&-->%:%<%%%%%<&4WQYYYW"
};
