/* XPM */
static char *_a296fb85f29437bee4a96740fe9e30cCcYpRneBlL82QE1q[] = {
/* columns rows colors chars-per-pixel */
"43 73 13 1 ",
"  c #557D55",
". c black",
"X c gray2",
"o c gray4",
"O c #1E1E1E",
"+ c #484848",
"@ c #615F61",
"# c #6B676B",
"$ c #C9A488",
"% c #CBAA91",
"& c #E0B798",
"* c #E3BEA2",
"= c gray96",
/* pixels */
"                  .......                  ",
"                  .......                  ",
"                  .......                  ",
"                  .......                  ",
"              ..............               ",
"              ..............               ",
"              ..............               ",
"              ..............               ",
"              @@@@..........               ",
"              @@@@..........               ",
"              @@@@..........               ",
"            @@................             ",
"            @@................             ",
"            @@................             ",
"            @@................             ",
"         @@@......................         ",
"         @@@......................         ",
"         @@@......................         ",
"            %%$$$$$$$$$$$$$$$$             ",
"            %%$$$$$$$$$$$$$$$$             ",
"            &&$$$$$$$$$$$$$$&&             ",
"            &&&&&&&&&&&&&&&&&&             ",
"            &&&&&&&&&&&&&&&&&&             ",
"            &&&&&&&&&&&&&&&&&&             ",
"            &&&&&&&&&&&&&&*&&&             ",
"            &&&&&&&&&&&&&&*&&&             ",
"            &&&&&&&&&&&&&&*&&&             ",
"            &&&&&&&&&&&&&&*&&&             ",
"            &&&&&&&&&&&&&&&&&&             ",
"            &&&&&&&&&&&&&&&&&&             ",
"            &&&&&&&&&&&&&&&&&&             ",
"              &&&&&&&&&&&&&&               ",
"              &&&&&&&&&&&&&&               ",
"              $$$$$$$$$$$$$$               ",
"         OOOOO+############+OOOOOO         ",
"         OOOOO+###########++OOOOOO         ",
"         OOOOO++##########++OOOOOO         ",
"         OOOOO++#########+++OOOOOO         ",
"     OOOOXOXXXO+++######+++OXXXXOXXXX      ",
"     OOOOXOXXXO++++#####+++OXXXXOXXXX      ",
"     OOOOXOXXXOO++++++++++OOXXXXOXXXX      ",
"     OOOOXOXXXOOO++++++++OOOXXXXOXXXX      ",
"  OOOXXXXXXOXXXXXXOOOOOOOOOOXXXOXXXXXXXXX  ",
"  XXXXXXXXXXOXXXXXXXXXXXXXXXXXOXXXXXXXXXX  ",
"  XXXXXXXXXXOXXXXXXXXXXXXXXXXXOXXXXXXXXXX  ",
"  XXXXXXXXXXXOXXXXXXXXXXXXXXXOXXXXXXXXXXX  ",
"  XXXXXXXXXXXOXXXXXXXXXXXXXXXOXXXXXXXXXXX  ",
"XXXXXXXXXXXXXOOXXXXXXXXXXXXXOOXXXXXXXXXXXXX",
"XXXXXXXXXXXXXXXOXXXXXXXXXXXOXXXXXXXXXXXXXXX",
"XXXXXXXXXXXXXXXXOOXXXXXXXOOXXXXXXXXXXXXXXXX",
"XXOOOOOOOXXXXXXXXXOOOOOOOXXXXXXXXXOOOOOOOXX",
"XXOOOOOOOXXXXXXXXXXXXXXXXXXXXXXXXXOOOOOOOXX",
"XXOOOOOOOXXXXXXXXXXXXXXXXXXXXXXXXXOOOOOOOXX",
"XXOOOOOOOXXXXXXXXXXXXXXXXXXXXXXXXXOOOOOOOXX",
"  &&&&&&&XXXXXXXXXXXXXXXXXXXXXXXXX&&&&&&&  ",
"  &&&&&&&XXXXXXXXXXXXXXXXXXXXXXXXX&&&&&&&  ",
"  &&&&&&&XXXXXXXXXXXXXXXXXXXXXXXXX&&&&&&&  ",
"  &&&&&&&XXXXXXXXXXXXXXXXXXXXXXXXX&&&&&&&  ",
"  &&&&&&&XXXXXXXXXXXXXXXXXXXXXXXXX&&&&&&&  ",
"  &&&&&&&XXXXXXXXXXXXXXXXXXXXXXXXX&&&&&&&  ",
"  &&&&&&&XXXXXXXXXXXXXXXXXXXXXXXXX&&&&&&&  ",
"     ====XXXXXXXXXXXXXXXXXXXXXXXXX         ",
"     ====XXXXXXXXXXXXXXXXXXXXXXXXX         ",
"         XXXXXoooooooooooooooooooo         ",
"         XXXXXoooooooooooooooooooo         ",
"         XXXXXoooooooooooooooooooo         ",
"     XXXXXXXooooooooooooooooooooooooo      ",
"     XXXXXXXooooooooooooooooooooooooo      ",
"     XXXXXXXooooooooooooooooooooooooo      ",
"     XXXXXXXooooooooooooooooooooooooo      ",
"  XXXXXXXXXXXXXXXXXXXXXXXXXXXXoooooooXXXX  ",
"  XXXXXXXXXXXXXXXXXXXXXXXXXXXXoooooooXXXX  ",
"  XXXXXXXXXXXXXXXXXXXXXXXXXXXXoooooooXXXX  ",
};
