/* XPM */
static char * herocm_xpm[] = {
"50 50 81 1",
" 	c #0E5907",
".	c #000000",
"+	c #454445",
"@	c #302F30",
"#	c #5F5D5F",
"$	c #444244",
"%	c #464446",
"&	c #0F0F0F",
"*	c #080808",
"=	c #615F61",
"-	c #867366",
";	c #947A66",
">	c #937762",
",	c #7A6351",
"'	c #D7B49A",
")	c #BA9A84",
"!	c #94786A",
"~	c #B8967F",
"{	c #D3AC8F",
"]	c #977B6C",
"^	c #D5AE90",
"/	c #E3BEA2",
"(	c #A78B7C",
"_	c #121038",
":	c #A58675",
"<	c #DCB495",
"[	c #362C40",
"}	c #E0B798",
"|	c #C7A58E",
"1	c #C5A188",
"2	c #DEB597",
"3	c #A88976",
"4	c #E2BB9D",
"5	c #DEB596",
"6	c #DFB697",
"7	c #C6A186",
"8	c #C5A085",
"9	c #E3BFA5",
"0	c #464646",
"a	c #9A8577",
"b	c #B29684",
"c	c #957E6F",
"d	c #1E1E1E",
"e	c #504D50",
"f	c #6B676B",
"g	c #1D1D1D",
"h	c #151515",
"i	c #3B393B",
"j	c #5F5B5F",
"k	c #6A666A",
"l	c #514E51",
"m	c #0E0E0E",
"n	c #050505",
"o	c #141414",
"p	c #060606",
"q	c #393739",
"r	c #4D4A4D",
"s	c #4C494C",
"t	c #1A191A",
"u	c #070707",
"v	c #2A231F",
"w	c #3B322C",
"x	c #3A312B",
"y	c #0B0908",
"z	c #29231F",
"A	c #0B0A09",
"B	c #D8B092",
"C	c #31271F",
"D	c #A1836D",
"E	c #DCB395",
"F	c #332820",
"G	c #A4866F",
"H	c #E1BA9D",
"I	c #EBD8CD",
"J	c #E6D5CA",
"K	c #35312E",
"L	c #896F5B",
"M	c #ECECEC",
"N	c #282828",
"O	c #161616",
"P	c #0A0A0A",
"                                                  ",
"                                                  ",
"                                                  ",
"                                                  ",
"                                                  ",
"                                                  ",
"                                                  ",
"                                                  ",
"                        ...                       ",
"                       ....                       ",
"                      ......                      ",
"                     ........                     ",
"                     ++@.....                     ",
"                     ##$.....                     ",
"                     %&*.....                     ",
"                    #$........                    ",
"                   =%*.........                   ",
"                    -;>>>>>>>,.                   ",
"                    ')!~{]]{^^                    ",
"                    /(_:<[[<}}                    ",
"                    /|:12332}}                    ",
"                    /4}}}}}}}}                    ",
"                    /4}556}}}}                    ",
"                     4678{}}}                     ",
"                     9}}}}}}}                     ",
"                    0abbbbbbcdd                   ",
"                   ddeffffffeddg                  ",
"                 ddhhiejffklihhmn                 ",
"                ooopnmhqrrstmnnnnnn               ",
"               nnnnnnnnnnnnnnnnnnnn               ",
"               nnnnnnnnnnnnnnnnnnnnn              ",
"              npuupnnnnnnnnnnnnpuupn              ",
"              nogggpnnnnnnnnnnnogggu              ",
"               vwwxynnnnnnnnnnnzwwxA              ",
"               B<<BCnnnnnnnnnnnD<<E               ",
"               }}}<FnnnnnnpomnnG}}}               ",
"               }}}<FnnnnnnughnnG}}}               ",
"                HIJKnmhhhhhhmnnL}}                ",
"                  MNn&OOOOO*uuuu                  ",
"                   nn*PPPPPPPPPP                  ",
"                 nnnuPPPPPPPPPPPP                 ",
"                 nnnuPPPPPPPPPPPP                 ",
"                nnnnnnnnnnnnn*PPPnn               ",
"                nnnnnnnnnnnnnuPPPn                ",
"                                                  ",
"                                                  ",
"                                                  ",
"                                                  ",
"                                                  ",
"                                                  "};
