/* XPM */
static char * heroom_xpm[] = {
"50 50 92 2",
"  	c #0E5907",
". 	c #000000",
"+ 	c #0F0F0F",
"@ 	c #080808",
"# 	c #5F5D5F",
"$ 	c #444244",
"% 	c #504E50",
"& 	c #454445",
"* 	c #302F30",
"= 	c #615F61",
"- 	c #4B4848",
"; 	c #2B221B",
"> 	c #2B211A",
", 	c #1D1610",
"' 	c #C5A68D",
") 	c #C5A389",
"! 	c #C19E83",
"~ 	c #C4A085",
"{ 	c #C6A286",
"] 	c #C29E83",
"^ 	c #C39F84",
"/ 	c #E2BDA1",
"( 	c #A98D7C",
"_ 	c #31273E",
": 	c #A78876",
"< 	c #DBB395",
"[ 	c #453845",
"} 	c #DFB697",
"| 	c #E3BEA2",
"1 	c #AA8E7D",
"2 	c #362C40",
"3 	c #A88976",
"4 	c #DCB496",
"5 	c #493B46",
"6 	c #E0B798",
"7 	c #DFB99C",
"8 	c #DCB495",
"9 	c #DEB597",
"0 	c #E2BB9D",
"a 	c #C5A185",
"b 	c #A4866F",
"c 	c #A4866E",
"d 	c #A78870",
"e 	c #050505",
"f 	c #31261E",
"g 	c #E2BCA0",
"h 	c #DCBAA1",
"i 	c #DDB596",
"j 	c #D9B194",
"k 	c #1E1E1E",
"l 	c #212121",
"m 	c #575253",
"n 	c #736C6D",
"o 	c #565152",
"p 	c #1D1D1D",
"q 	c #4E4C4E",
"r 	c #696569",
"s 	c #6A666A",
"t 	c #6B676B",
"u 	c #070707",
"v 	c #1A1A1A",
"w 	c #252525",
"x 	c #514E51",
"y 	c #2B2A2B",
"z 	c #060606",
"A 	c #141414",
"B 	c #676367",
"C 	c #252425",
"D 	c #151515",
"E 	c #151415",
"F 	c #1E1D1E",
"G 	c #0E0E0E",
"H 	c #2A231F",
"I 	c #3B322C",
"J 	c #3A312B",
"K 	c #0B0908",
"L 	c #29231F",
"M 	c #0B0A09",
"N 	c #D8B092",
"O 	c #31271F",
"P 	c #A1836D",
"Q 	c #DCB395",
"R 	c #332820",
"S 	c #E1BA9D",
"T 	c #EBD8CD",
"U 	c #E6D5CA",
"V 	c #35312E",
"W 	c #896F5B",
"X 	c #ECECEC",
"Y 	c #282828",
"Z 	c #161616",
"` 	c #0A0A0A",
"                                                                                                    ",
"                                                                                                    ",
"                                                                                                    ",
"                                                                                                    ",
"                                                                                                    ",
"                                                                                                    ",
"                                                . .                                                 ",
"                                              . . . .                                               ",
"                                              . . . .                                               ",
"                                            . . . . . .                                             ",
"                                          + + @ . . . . .                                           ",
"                                          # # $ . . . . .                                           ",
"                                          % & * . . . . .                                           ",
"                                        = & . . . . . . . .                                         ",
"                                        % * . . . . . . . . .                                       ",
"                                      = - ; > > > > > > > , .                                       ",
"                                        ' ) ! ~ { ] ] { { ^                                         ",
"                                        / ( _ : < [ [ < } }                                         ",
"                                        | 1 2 3 4 5 5 4 6 6                                         ",
"                                        | 7 8 9 6 4 4 6 6 6                                         ",
"                                        | 0 6 a b c d 9 6 6                                         ",
"                                        | 0 6 b e . f 8 6 6                                         ",
"                                          g 6 a b c d 9 6                                           ",
"                                          h i i i i i i j                                           ",
"                                      k l m n n n n n n o k k                                       ",
"                                      p p q r s t t t r q p p p                                     ",
"                                  k p @ u v w x t t r y v u u z e                                   ",
"                                  p p z e A p q r r B C D e e e e                                   ",
"                                A u z e e z u E F F p D G e e e e e e                               ",
"                              e e e e e e e e e e e e e e e e e e e e                               ",
"                              e e e e e e e e e e e e e e e e e e e e e                             ",
"                            e z u u z e e e e e e e e e e e e z u u z e                             ",
"                            e A p p p z e e e e e e e e e e e A p p p u                             ",
"                              H I I J K e e e e e e e e e e e L I I J M                             ",
"                              N 8 8 N O e e e e e e e e e e e P 8 8 Q                               ",
"                              6 6 6 8 R e e e e e e z A G e e b 6 6 6                               ",
"                              6 6 6 8 R e e e e e e u p D e e b 6 6 6                               ",
"                                S T U V e G D D D D D D G e e W 6 6                                 ",
"                                    X Y e + Z Z Z Z Z @ u u u u                                     ",
"                                      e e @ ` ` ` ` ` ` ` ` ` `                                     ",
"                                  e e e u ` ` ` ` ` ` ` ` ` ` ` `                                   ",
"                                  e e e u ` ` ` ` ` ` ` ` ` ` ` `                                   ",
"                                e e e e e e e e e e e e e @ ` ` ` e e                               ",
"                                e e e e e e e e e e e e e u ` ` ` e                                 ",
"                                                                                                    ",
"                                                                                                    ",
"                                                                                                    ",
"                                                                                                    ",
"                                                                                                    ",
"                                                                                                    "};
