/* XPM */
static char *f671ee6bf6af4e67d0dc1d797093cb78GzLyIi63OluweUJw[] = {
/* columns rows colors chars-per-pixel */
"43 73 13 1 ",
"  c #0E5907",
". c black",
"X c gray2",
"o c gray4",
"O c #1E1E1E",
"+ c #121038",
"@ c #615F61",
"# c #6B676B",
"$ c #C9A488",
"% c #CBAA91",
"& c #E0B798",
"* c #E3BEA2",
"= c gray96",
/* pixels */

"                                           ",
"                                           ",
"                                           ",
"                  .......                  ",
"                  .......                  ",
"                  .......                  ",
"                  .......                  ",
"                  .......                  ",
"              ..............               ",
"              ..............               ",
"              ..............               ",
"              ..............               ",
"              @@@@..........               ",
"              @@@@..........               ",
"              @@@@..........               ",
"            @@................             ",
"            @@................             ",
"            @@................             ",
"            @@................             ",
"         @@@......................         ",
"         @@@......................         ",
"         @@@......................         ",
"            %%$$$$$$$$$$$$$$$$             ",
"            %%$$$$$$$$$$$$$$$$             ",
"            **++++&&&++++&&&&&             ",
"            **++++&&&++++&&&&&             ",
"            **++++&&&++++&&&&&             ",
"            **++++&&&++++&&&&&             ",
"            **&&&&&&&&&&&&&&&&             ",
"            **&&&&&&&&&&&&&&&&             ",
"            **&&&&&&&&&&&&&&&&             ",
"            **&&&&&&&&&&&&&&&&             ",
"            **&&&&&&&&&&&&&&&&             ",
"            **&&&$$$$$&&&&&&&&             ",
"            **&&&&&&&&&&&&&&&&             ",
"              &&&&&&&&&&&&&&               ",
"              &&&&&&&&&&&&&&               ",
"              &&&&&&&&&&&&&&               ",
"         OOOOO##############OOOOOO         ",
"         OOOOO##############OOOOOO         ",
"         OOOOO##############OOOOOO         ",
"     OOOOOOOOO##############OOOOOOXXX      ",
"     OOOOXXXXXOOOO#######OOOXXXXXXXXX      ",
"  OOOOOOOXXXXXOOOO#######OOOXXXXXXXXXXXXX  ",
"  XXXXXXXXXXXXXXXXXXXXXXXXXXXXXXXXXXXXXXX  ",
"  XXXXXXXXXXXXXXXXXXXXXXXXXXXXXXXXXXXXXXX  ",
"  XXXXXXXXXXXXXXXXXXXXXXXXXXXXXXXXXXXXXXX  ",
"  XXXXXXXXXXXXXXXXXXXXXXXXXXXXXXXXXXXXXXX  ",
"XXXXXXXXXXXXXXXXXXXXXXXXXXXXXXXXXXXXXXXXXXX",
"XXXXXXXXXXXXXXXXXXXXXXXXXXXXXXXXXXXXXXXXXXX",
"XXXXXXXXXXXXXXXXXXXXXXXXXXXXXXXXXXXXXXXXXXX",
"XXOOOOOOOXXXXXXXXXXXXXXXXXXXXXXXXXOOOOOOOXX",
"XXOOOOOOOXXXXXXXXXXXXXXXXXXXXXXXXXOOOOOOOXX",
"XXOOOOOOOXXXXXXXXXXXXXXXXXXXXXXXXXOOOOOOOXX",
"XXOOOOOOOXXXXXXXXXXXXXXXXXXXXXXXXXOOOOOOOXX",
"  &&&&&&&XXXXXXXXXXXXXXXXXXXXXXXXX&&&&&&&  ",
"  &&&&&&&XXXXXXXXXXXXXXXXXXXXXXXXX&&&&&&&  ",
"  &&&&&&&XXXXXXXXXXXXXXXXXXXXXXXXX&&&&&&&  ",
"  &&&&&&&XXXXXXXXXXXXXXXXOOOXXXXXX&&&&&&&  ",
"  &&&&&&&XXXXXXXXXXXXXXXXOOOXXXXXX&&&&&&&  ",
"  &&&&&&&XXXXXXXXXXXXXXXXOOOXXXXXX&&&&&&&  ",
"  &&&&&&&XXXXXXXXXXXXXXXXOOOXXXXXX&&&&&&&  ",
"     ====XXXXXOOOOOOOOOOOXXXXXXXXX         ",
"     ====XXXXXOOOOOOOOOOOXXXXXXXXX         ",
"         XXXXXoooooooooooooooooooo         ",
"         XXXXXoooooooooooooooooooo         ",
"         XXXXXoooooooooooooooooooo         ",
"     XXXXXXXooooooooooooooooooooooooo      ",
"     XXXXXXXooooooooooooooooooooooooo      ",
"     XXXXXXXooooooooooooooooooooooooo      ",
"     XXXXXXXooooooooooooooooooooooooo      ",
"  XXXXXXXXXXXXXXXXXXXXXXXXXXXXoooooooXXXX  ",
"  XXXXXXXXXXXXXXXXXXXXXXXXXXXXoooooooXXXX  ",
"  XXXXXXXXXXXXXXXXXXXXXXXXXXXXoooooooXXXX  "
};
