/* XPM */
static char *_e4edddcd9044962e5f84560dde77d36aFgmQ8QT8QtG5I6g[] = {
/* columns rows colors chars-per-pixel */
"100 100 8 1 ",
"  c #0E5907",
". c #760416",
"X c #782935",
"o c #A9061F",
"O c #963A09",
"+ c #F2092C",
"@ c #BD4906",
"# c #F07109",
/* pixels */
"                                                                                                    ",
"                                                                                                    ",
"                                                                                                    ",
"                                                                                                    ",
"                                                                                                    ",
"                                                                                                    ",
"                                                                                                    ",
"                                                                                                    ",
"                                                                                                    ",
"                                                                                                    ",
"                                                                                                    ",
"                                                                                                    ",
"                                                                                                    ",
"                                                                                                    ",
"                                                                                                    ",
"                                                                                                    ",
"                                                                                                    ",
"                                                                                                    ",
"                                                                                                    ",
"                                                                                                    ",
"                                                                                                    ",
"                                                                                                    ",
"                                                                                                    ",
"                                                                                                    ",
"                                  ooooooooo                                                         ",
"                               ooo+++++++++ooo                                                      ",
"                            ooo+++++++++++++++oo                                                    ",
"                           o++++++++++++++++++++o                                                   ",
"                          .++++++++++++++++++++++oo                                                 ",
"                         .+++++++++++++++++++++++++o                                                ",
"                        .+++++++++++++++++++++++++++o                                               ",
"                       .+++++++++++++++++++++++++++++o                                              ",
"                      .+++++++++++++++++++++++++++++++o                                             ",
"                     .+++++++++++++++++++++++++++++++++o                                            ",
"                    .+++++++++++++++++++++++++++++++++++o                                           ",
"                   .++++..+++++++++++..++++++++++++++++++o                                          ",
"                  .++++++..+++++++++..+++++++++++++++++++o                                          ",
"                 .+++++++..+++++++++..++++++++++++++++++++o                                         ",
"                 .++++++++..+++++++..+++++++++++++++++++++o                                         ",
"                .+++++++++..+++++++..++++++++++++++++++++++o                                        ",
"                .++++++++++..+++++..+++++++++++++++++++++++o                  O                     ",
"                .++++++++++..+++++..+++++++++++++++++++++++o                                        ",
"               .++++++++++++..+++..++++++++++++++++++++++++o                O @ O                   ",
"               .++++++++++++..+++..+++++++++++++++++++++++++o                @@@                    ",
"               .++++++++...++++++++...++++++++++++++++++++++o               @@#@@                   ",
"               .+++++++..O..++++++..O..+++++++++++++++++++++o               @#o#@                   ",
"               .+++++++.O@O.++++++.O@O.+++++++++++++++++++++o               @ooo@                   ",
"               .+++++++.@#@.++++++.@#@.+++++++++++++++++++++o               #ooo#                   ",
"               .+++++++.###.++++++.###.+++++++++++++++++++++o               #ooo#                   ",
"               .+++++++.#o#.++++++.#o#.+++++++++++++++++++++o               #ooo#                   ",
"               .+++++++.#o#.++++++.#o#.+++++++++++++++++++++o                ###                    ",
"               .+++++++.#o#.++++++.#o#.++++++++++++++++++++++o                o                     ",
"               .+++++++.###.++++++.###.++++++++++++++++++++++o               o.                     ",
"               .+++++++.ooo.++++++.ooo.++++++++++++++++++++++o               o.                     ",
"               .+++++++..o..++++++..o..+++++++++++++++++++++++o             oo.                     ",
"               .++++++++...++++++++...++++++++++++++++++++++++o             oo.                     ",
"               .++++++++++++++++++++++++++++++++++++++++++++++o            o+o.                     ",
"               .++++++++++++++++++++++++++++++++++++++++++++++o            o+o.                     ",
"               .+++++++++++++++++++++++++++++++++++++++++++++++o          o+o.                      ",
"               .++++++.+++++++++++++++++.+++++++++++++++++++++++ooo    ooo++o.                      ",
"               .++++++...................++++++++++++++++++++++++++oooo+++++o.                      ",
"               .+++++++.................+++++++++++++++++++++++++++++++++++o.                       ",
"               .++++++++...............++++++++++++++++++++++++++++++++++++o.                       ",
"               .++++++++...............++++++++++++++++++++++++++++++++++++o.                       ",
"               .++++++++...............++++++++++++++++++++++++++++++++++++.                        ",
"               .+++++++++.............++++++++++++++++++++++++++++++++++++o.                        ",
"               .o+++++++++...........++++++++++++++++++++++++++++++++++ooo.                         ",
"                .o+++++++++.........++++++++++++++++++++++++++++++++ooo...                          ",
"                .oo++++++++++.....+++++++++++++++++++++++++++++++++o...                             ",
"                 .oo+++++++++++++++++++++++++++++++++++++++++++++ooX                                ",
"                  .oo++++++++++++++++++++++++++++++++++++++++oooo.X                                 ",
"                   .oo+++++++++++++++++++++++++++++++++++oooo....                                   ",
"                    .oo++++++++++++++++++++++++++++++++oo....                                       ",
"                     ..oooooooooooooooooooooooooooooooo..                                           ",
"                       ................................                                             ",
"                                                                                                    ",
"                                                                                                    ",
"                                                                                                    ",
"                                                                                                    ",
"                                                                                                    ",
"                                                                                                    ",
"                                                                                                    ",
"                                                                                                    ",
"                                                                                                    ",
"                                                                                                    ",
"                                                                                                    ",
"                                                                                                    ",
"                                                                                                    ",
"                                                                                                    ",
"                                                                                                    ",
"                                                                                                    ",
"                                                                                                    ",
"                                                                                                    ",
"                                                                                                    ",
"                                                                                                    ",
"                                                                                                    ",
"                                                                                                    ",
"                                                                                                    ",
"                                                                                                    ",
"                                                                                                    "
};
