/* XPM */
static char * monster2_xpm[] = {
"50 50 85 1",
" 	c #0E5907",
".	c #B40621",
"+	c #D30826",
"@	c #C80724",
"#	c #E20829",
"$	c #F0092C",
"%	c #F2092C",
"&	c #F1092C",
"*	c #EE092B",
"=	c #D40826",
"-	c #DB0828",
";	c #C90724",
">	c #CB0725",
",	c #EF092B",
"'	c #DA0827",
")	c #DD0828",
"!	c #C10623",
"~	c #ED092B",
"{	c #8D051A",
"]	c #B20620",
"^	c #C60724",
"/	c #EB092B",
"(	c #90051A",
"_	c #BF0622",
":	c #AE4307",
"<	c #BE4A06",
"[	c #860419",
"}	c #8B1D15",
"|	c #A80B1E",
"1	c #A50B1D",
"2	c #B10620",
"3	c #CA5408",
"4	c #D15610",
"5	c #C30E22",
"6	c #C05009",
"7	c #9D3212",
"8	c #C34516",
"9	c #AD191E",
"0	c #D55C0B",
"a	c #C61722",
"b	c #DD6111",
"c	c #C24F13",
"d	c #D05117",
"e	c #B0211E",
"f	c #D05316",
"g	c #C24E13",
"h	c #D85A14",
"i	c #C41123",
"j	c #CC4E17",
"k	c #B03A17",
"l	c #D50827",
"m	c #A6061E",
"n	c #7D0417",
"o	c #A9061E",
"p	c #A9061F",
"q	c #7B0417",
"r	c #B30621",
"s	c #CA0725",
"t	c #DF0829",
"u	c #9B051C",
"v	c #AA061F",
"w	c #7F0417",
"x	c #860418",
"y	c #E10829",
"z	c #8F051A",
"A	c #7E0417",
"B	c #760416",
"C	c #D00726",
"D	c #A7051E",
"E	c #B00620",
"F	c #B90622",
"G	c #7A0417",
"H	c #820418",
"I	c #D80827",
"J	c #D20726",
"K	c #B80621",
"L	c #98051C",
"M	c #8C051A",
"N	c #C10723",
"O	c #D90827",
"P	c #C30723",
"Q	c #B81429",
"R	c #7E0719",
"S	c #8E051A",
"T	c #8F071B",
"                                                  ",
"                                                  ",
"                                                  ",
"                                                  ",
"                                                  ",
"                                                  ",
"                                                  ",
"                                                  ",
"                                                  ",
"                                                  ",
"                                                  ",
"                                                  ",
"                .++++@                            ",
"              +#$%%%%&*=                          ",
"             -%%%%%%%%%%#;                        ",
"            -%%%%%%%%%%%%$>                       ",
"           -%%%%%%%%%%%%%%$>                      ",
"          -$@,%%%%')%%%%%%%$@                     ",
"         '%%!!%%%~{~%%%%%%%%#                     ",
"        ]$%%~{~%%!!%%%%%%%%%&@                    ",
"        ^%%%%!!%~{~%%%%%%%%%%+                    ",
"        ~%%%,/(,^_*%%%%%%%%%%#        :<          ",
"       [*%%'}|~%*1}'%%%%%%%%%$2       34          ",
"       [*%%567*%*765%%%%%%%%%$2       890         ",
"       [*%%abc*%*cba%%%%%%%%%$2       de          ",
"       [*%%afg*%*gfa%%%%%%%%%&@        h          ",
"       [*%%ijk*%*kji%%%%%%%%%%l       mn          ",
"       [*%%'(o$%$o('%%%%%%%%%%*       pq          ",
"       [*%%%,$%%%$,%%%%%%%%%%%$.     rs           ",
"       [*%$-*******~)%%%%%%%%%%#.   .tu           ",
"       [*%$vwwwwwwwx'%%%%%%%%%%%$#+#$yz           ",
"       [*%%~ABBBBBB_%%%%%%%%%%%%%%%%%C            ",
"       x~%%$DBBBBBA'%%%%%%%%%%%%%%%&*E            ",
"        F$%%,DGBBHI%%%%%%%%%%%%%%$JKL             ",
"        MN$%%$O!P~%%%%%%%%%%%%&$yQR               ",
"         SN$%%%%%%%%%%%%%%%&yCKLT                 ",
"          MKCCCCCCCCCCCCCCCKzq                    ",
"            qqqqqqqqqqqqqqq                       ",
"                                                  ",
"                                                  ",
"                                                  ",
"                                                  ",
"                                                  ",
"                                                  ",
"                                                  ",
"                                                  ",
"                                                  ",
"                                                  ",
"                                                  ",
"                                                  "};
