/* XPM */
static char * monster1_xpm[] = {
"50 50 83 1",
" 	c #0E5907",
".	c #B40621",
"+	c #D30826",
"@	c #C80724",
"#	c #E20829",
"$	c #F0092C",
"%	c #F2092C",
"&	c #F1092C",
"*	c #EE092B",
"=	c #D40826",
"-	c #DB0828",
";	c #C90724",
">	c #CB0725",
",	c #EF092B",
"'	c #DA0827",
")	c #DD0828",
"!	c #C10623",
"~	c #ED092B",
"{	c #8D051A",
"]	c #B20620",
"^	c #C60724",
"/	c #EB092B",
"(	c #90051A",
"_	c #BF0622",
":	c #A74208",
"<	c #860419",
"[	c #8F071A",
"}	c #A9061E",
"|	c #A6061E",
"1	c #B10620",
"2	c #C65408",
"3	c #E06509",
"4	c #C20A23",
"5	c #A53711",
"6	c #951F17",
"7	c #D35711",
"8	c #C2401A",
"9	c #D85E09",
"0	c #C51322",
"a	c #DE640A",
"b	c #B64512",
"c	c #D05117",
"d	c #B0211E",
"e	c #C61722",
"f	c #D25415",
"g	c #C24E13",
"h	c #D85A14",
"i	c #C41123",
"j	c #CC4E17",
"k	c #B03A17",
"l	c #D50827",
"m	c #7D0417",
"n	c #A9061F",
"o	c #7B0417",
"p	c #B30621",
"q	c #CA0725",
"r	c #DF0829",
"s	c #9B051C",
"t	c #AA061F",
"u	c #7F0417",
"v	c #860418",
"w	c #E10829",
"x	c #8F051A",
"y	c #7E0417",
"z	c #760416",
"A	c #D00726",
"B	c #A7051E",
"C	c #B00620",
"D	c #B90622",
"E	c #7A0417",
"F	c #820418",
"G	c #D80827",
"H	c #D20726",
"I	c #B80621",
"J	c #98051C",
"K	c #8C051A",
"L	c #C10723",
"M	c #D90827",
"N	c #C30723",
"O	c #B81429",
"P	c #7E0719",
"Q	c #8E051A",
"R	c #8F071B",
"                                                  ",
"                                                  ",
"                                                  ",
"                                                  ",
"                                                  ",
"                                                  ",
"                                                  ",
"                                                  ",
"                                                  ",
"                                                  ",
"                                                  ",
"                                                  ",
"                .++++@                            ",
"              +#$%%%%&*=                          ",
"             -%%%%%%%%%%#;                        ",
"            -%%%%%%%%%%%%$>                       ",
"           -%%%%%%%%%%%%%%$>                      ",
"          -$@,%%%%')%%%%%%%$@                     ",
"         '%%!!%%%~{~%%%%%%%%#                     ",
"        ]$%%~{~%%!!%%%%%%%%%&@                    ",
"        ^%%%%!!%~{~%%%%%%%%%%+                    ",
"        ~%%%,/(,^_*%%%%%%%%%%#         :          ",
"       <*%%'[}~%*|['%%%%%%%%%$1       23          ",
"       <*%%456*%*654%%%%%%%%%$1       789         ",
"       <*%%0ab*%*ba0%%%%%%%%%$1       cd          ",
"       <*%%efg*%*gfe%%%%%%%%%&@        h          ",
"       <*%%ijk*%*kji%%%%%%%%%%l       |m          ",
"       <*%%'(}$%$}('%%%%%%%%%%*       no          ",
"       <*%%%,$%%%$,%%%%%%%%%%%$.     pq           ",
"       <*%$-*******~)%%%%%%%%%%#.   .rs           ",
"       <*%$tuuuuuuuv'%%%%%%%%%%%$#+#$wx           ",
"       <*%%~yzzzzzz_%%%%%%%%%%%%%%%%%A            ",
"       v~%%$Bzzzzzy'%%%%%%%%%%%%%%%&*C            ",
"        D$%%,BEzzFG%%%%%%%%%%%%%%$HIJ             ",
"        KL$%%$M!N~%%%%%%%%%%%%&$wOP               ",
"         QL$%%%%%%%%%%%%%%%&wAIJR                 ",
"          KIAAAAAAAAAAAAAAAIxo                    ",
"            ooooooooooooooo                       ",
"                                                  ",
"                                                  ",
"                                                  ",
"                                                  ",
"                                                  ",
"                                                  ",
"                                                  ",
"                                                  ",
"                                                  ",
"                                                  ",
"                                                  ",
"                                                  "};
