/* XPM */
static char * monster3_xpm[] = {
"50 50 88 1",
" 	c #0E5907",
".	c #B40621",
"+	c #D30826",
"@	c #C80724",
"#	c #E20829",
"$	c #F0092C",
"%	c #F2092C",
"&	c #F1092C",
"*	c #EE092B",
"=	c #D40826",
"-	c #DB0828",
";	c #C90724",
">	c #CB0725",
",	c #EF092B",
"'	c #DA0827",
")	c #DD0828",
"!	c #C10623",
"~	c #ED092B",
"{	c #8D051A",
"]	c #E20929",
"^	c #B20620",
"/	c #F10E2E",
"(	c #CF2C3F",
"_	c #C60724",
":	c #EB092B",
"<	c #90051A",
"[	c #BF0622",
"}	c #963A09",
"|	c #993C09",
"1	c #860419",
"2	c #8A1C15",
"3	c #A80B1E",
"4	c #A50B1D",
"5	c #B10620",
"6	c #BE5108",
"7	c #D9630A",
"8	c #C20C22",
"9	c #A13E09",
"0	c #902912",
"a	c #D35711",
"b	c #C2401A",
"c	c #D85E09",
"d	c #C51322",
"e	c #D05610",
"f	c #B44312",
"g	c #D05117",
"h	c #B0211E",
"i	c #C61722",
"j	c #D05316",
"k	c #C24E13",
"l	c #D85A14",
"m	c #C41123",
"n	c #CC4E17",
"o	c #B03A17",
"p	c #D50827",
"q	c #A6061E",
"r	c #7D0417",
"s	c #A9061E",
"t	c #A9061F",
"u	c #7B0417",
"v	c #B30621",
"w	c #CA0725",
"x	c #DF0829",
"y	c #9B051C",
"z	c #AA061F",
"A	c #7F0417",
"B	c #860418",
"C	c #E10829",
"D	c #8F051A",
"E	c #7E0417",
"F	c #760416",
"G	c #D00726",
"H	c #A7051E",
"I	c #B00620",
"J	c #7A0417",
"K	c #820418",
"L	c #D80827",
"M	c #D20726",
"N	c #B80621",
"O	c #98051C",
"P	c #93051B",
"Q	c #DF0828",
"R	c #D90827",
"S	c #C30723",
"T	c #B81429",
"U	c #7E0719",
"V	c #94051B",
"W	c #8F071B",
"                                                  ",
"                                                  ",
"                                                  ",
"                                                  ",
"                                                  ",
"                                                  ",
"                                                  ",
"                                                  ",
"                                                  ",
"                                                  ",
"                                                  ",
"                                                  ",
"                .++++@                            ",
"              +#$%%%%&*=                          ",
"             -%%%%%%%%%%#;                        ",
"            -%%%%%%%%%%%%$>                       ",
"           -%%%%%%%%%%%%%%$>                      ",
"          -$@,%%%%')%%%%%%%$@                     ",
"         '%%!!%%%~{~%%%%%%%%]                     ",
"        ^$%%~{~%%!!%%%%%%%%%/(                    ",
"        _%%%%!!%~{~%%%%%%%%%%+                    ",
"        ~%%%,:<,_[*%%%%%%%%%%#        }|          ",
"       1*%%'23~%*42'%%%%%%%%%$5       67          ",
"       1*%%890*%*098%%%%%%%%%$5       abc         ",
"       1*%%def*%*fed%%%%%%%%%$5       gh          ",
"       1*%%ijk*%*kji%%%%%%%%%&@        l          ",
"       1*%%mno*%*onm%%%%%%%%%%p       qr          ",
"       1*%%'<s$%$s<'%%%%%%%%%%*       tu          ",
"       1*%%%,$%%%$,%%%%%%%%%%%$.     vw           ",
"       1*%$-*******~)%%%%%%%%%%#.   .xy           ",
"       1*%$zAAAAAAAB'%%%%%%%%%%%$#+#$CD           ",
"       1*%%~EFFFFFF[%%%%%%%%%%%%%%%%%G            ",
"       1*%%$HFFFFFE'%%%%%%%%%%%%%%%&*I            ",
"        '%%%,HJFFKL%%%%%%%%%%%%%%$MNO             ",
"        PQ%%%$R!S~%%%%%%%%%%%%&$CTU               ",
"         VQ&%%%%%%%%%%%%%%%&CGNOW                 ",
"          <NGGGGGGGGGGGGGGGNDu                    ",
"            uuuuuuuuuuuuuuu                       ",
"                                                  ",
"                                                  ",
"                                                  ",
"                                                  ",
"                                                  ",
"                                                  ",
"                                                  ",
"                                                  ",
"                                                  ",
"                                                  ",
"                                                  ",
"                                                  "};
