/* XPM */
static char * exit_xpm[] = {
"50 50 357 2",
"  	c #3D3717",
". 	c #3E3616",
"+ 	c #3D3617",
"@ 	c #3E3617",
"# 	c #3D3516",
"$ 	c #413917",
"% 	c #433B18",
"& 	c #453D18",
"* 	c #443C18",
"= 	c #423A17",
"- 	c #3E3716",
"; 	c #3C3516",
"> 	c #463D18",
", 	c #403917",
"' 	c #403817",
") 	c #3C3616",
"! 	c #423B17",
"~ 	c #433C18",
"{ 	c #3F3717",
"] 	c #3D3616",
"^ 	c #3F3817",
"/ 	c #433B17",
"( 	c #61571E",
"_ 	c #7A6E24",
": 	c #857827",
"< 	c #837627",
"[ 	c #574D1C",
"} 	c #4D4219",
"| 	c #413A17",
"1 	c #7C6F25",
"2 	c #706622",
"3 	c #655A1F",
"4 	c #3E3717",
"5 	c #413A18",
"6 	c #6B6020",
"7 	c #847727",
"8 	c #6B6121",
"9 	c #473F19",
"0 	c #3E3817",
"a 	c #4A4018",
"b 	c #7B6E24",
"c 	c #817426",
"d 	c #837727",
"e 	c #6B6021",
"f 	c #453E19",
"g 	c #3F3617",
"h 	c #574E1C",
"i 	c #4A4119",
"j 	c #675B1F",
"k 	c #867928",
"l 	c #877A28",
"m 	c #807326",
"n 	c #584D1C",
"o 	c #7E7125",
"p 	c #635A1F",
"q 	c #484019",
"r 	c #554C1B",
"s 	c #7D7025",
"t 	c #6A6020",
"u 	c #443D18",
"v 	c #433A18",
"w 	c #5F541D",
"x 	c #716623",
"y 	c #5E541E",
"z 	c #403918",
"A 	c #4E4419",
"B 	c #776A23",
"C 	c #7F7226",
"D 	c #64581E",
"E 	c #53491B",
"F 	c #7F7225",
"G 	c #827526",
"H 	c #6C6121",
"I 	c #5B511D",
"J 	c #6F6221",
"K 	c #796D24",
"L 	c #52491B",
"M 	c #423B18",
"N 	c #675C1F",
"O 	c #857928",
"P 	c #62591F",
"Q 	c #3E3516",
"R 	c #3F3415",
"S 	c #3F3616",
"T 	c #5C501C",
"U 	c #61551D",
"V 	c #63571E",
"W 	c #5D521C",
"X 	c #4D4218",
"Y 	c #463C17",
"Z 	c #413816",
"` 	c #443A17",
" .	c #685C1F",
"..	c #4C4219",
"+.	c #453C17",
"@.	c #7B6E25",
"#.	c #7F7326",
"$.	c #847827",
"%.	c #453E18",
"&.	c #6E6321",
"*.	c #857828",
"=.	c #5E551E",
"-.	c #3B3616",
";.	c #3C3617",
">.	c #49421A",
",.	c #463F19",
"'.	c #3F3516",
").	c #423816",
"!.	c #574C1B",
"~.	c #706321",
"{.	c #756923",
"].	c #7B6F25",
"^.	c #4E461A",
"/.	c #4E4319",
"(.	c #463B17",
"_.	c #4F4319",
":.	c #61551E",
"<.	c #786B24",
"[.	c #695E20",
"}.	c #51471A",
"|.	c #61541D",
"1.	c #665A1F",
"2.	c #6A5E20",
"3.	c #6D6221",
"4.	c #473E19",
"5.	c #403717",
"6.	c #50451A",
"7.	c #5A4E1C",
"8.	c #60541D",
"9.	c #5F531D",
"0.	c #3D3416",
"a.	c #4C4119",
"b.	c #453C18",
"c.	c #746722",
"d.	c #7C7025",
"e.	c #564D1C",
"f.	c #55491A",
"g.	c #5D511D",
"h.	c #554A1B",
"i.	c #3F3615",
"j.	c #473E18",
"k.	c #7A6F25",
"l.	c #4F471B",
"m.	c #403A18",
"n.	c #786C24",
"o.	c #766923",
"p.	c #64591F",
"q.	c #6E6422",
"r.	c #4F471A",
"s.	c #3F3515",
"t.	c #50461A",
"u.	c #483E18",
"v.	c #5D521D",
"w.	c #554B1B",
"x.	c #756922",
"y.	c #60571B",
"z.	c #1E1B08",
"A.	c #0E0D06",
"B.	c #0C0A06",
"C.	c #0B0A06",
"D.	c #0C0B06",
"E.	c #1E1A08",
"F.	c #5B521A",
"G.	c #524919",
"H.	c #5D531D",
"I.	c #5B521D",
"J.	c #3F3917",
"K.	c #5A501C",
"L.	c #7A6D24",
"M.	c #776B27",
"N.	c #1B1808",
"O.	c #050505",
"P.	c #131106",
"Q.	c #484013",
"R.	c #736721",
"S.	c #4C4319",
"T.	c #7D7125",
"U.	c #655B1F",
"V.	c #544A1B",
"W.	c #706422",
"X.	c #877E4B",
"Y.	c #4E4D42",
"Z.	c #141209",
"`.	c #060605",
" +	c #62581C",
".+	c #493D18",
"++	c #443C17",
"@+	c #796C24",
"#+	c #504F44",
"$+	c #0A0A0A",
"%+	c #494214",
"&+	c #5F531C",
"*+	c #403816",
"=+	c #827527",
"-+	c #776B24",
";+	c #756823",
">+	c #5A501D",
",+	c #685D20",
"'+	c #3E3517",
")+	c #6E6325",
"!+	c #615C44",
"~+	c #060505",
"{+	c #494115",
"]+	c #463E18",
"^+	c #4D4319",
"/+	c #473D18",
"(+	c #504519",
"_+	c #564B1B",
":+	c #5E521D",
"<+	c #413817",
"[+	c #594F1C",
"}+	c #796E24",
"|+	c #5A511C",
"1+	c #473F23",
"2+	c #595541",
"3+	c #131109",
"4+	c #141207",
"5+	c #352E13",
"6+	c #594E1C",
"7+	c #4B4219",
"8+	c #746723",
"9+	c #403617",
"0+	c #3D3515",
"a+	c #423A18",
"b+	c #696859",
"c+	c #2E2D23",
"d+	c #110F07",
"e+	c #493E17",
"f+	c #4F461A",
"g+	c #5F551D",
"h+	c #51481B",
"i+	c #3B3516",
"j+	c #262315",
"k+	c #0C0B09",
"l+	c #2C2710",
"m+	c #3F3716",
"n+	c #6B5E20",
"o+	c #2C2610",
"p+	c #342F13",
"q+	c #534A1B",
"r+	c #60551E",
"s+	c #766A23",
"t+	c #1F1B0B",
"u+	c #2A250F",
"v+	c #413B18",
"w+	c #59501D",
"x+	c #6A5F20",
"y+	c #3C3515",
"z+	c #6E6221",
"A+	c #564C1B",
"B+	c #0F0D06",
"C+	c #7A6E25",
"D+	c #695D20",
"E+	c #403A17",
"F+	c #6D6121",
"G+	c #121006",
"H+	c #726721",
"I+	c #4C441A",
"J+	c #1F1C0B",
"K+	c #483F18",
"L+	c #59501C",
"M+	c #5A511D",
"N+	c #61561E",
"O+	c #433A17",
"P+	c #796E25",
"Q+	c #4D4519",
"R+	c #463F13",
"S+	c #64581F",
"T+	c #544B1B",
"U+	c #362E13",
"V+	c #080705",
"W+	c #4B4414",
"X+	c #766B22",
"Y+	c #51481A",
"Z+	c #6F6321",
"`+	c #2B250F",
" @	c #706520",
".@	c #665C1D",
"+@	c #5B501C",
"@@	c #807426",
"#@	c #62571E",
"$@	c #433917",
"%@	c #2B260F",
"&@	c #594F19",
"*@	c #645A1C",
"=@	c #6B5F20",
"-@	c #5E531D",
";@	c #4B4316",
">@	c #584E19",
",@	c #4F4419",
"'@	c #4D441A",
")@	c #423917",
"!@	c #52471A",
"~@	c #2A2610",
"{@	c #090805",
"]@	c #433A15",
"^@	c #342D11",
"/@	c #473E17",
"(@	c #2B2610",
"_@	c #28240F",
":@	c #3E3515",
"<@	c #28230E",
"[@	c #2C2810",
"}@	c #484119",
"|@	c #62581F",
"1@	c #5C531D",
"2@	c #1C180A",
"3@	c #746823",
"4@	c #584E1C",
"5@	c #2E2910",
"6@	c #443B17",
"7@	c #5E541B",
"8@	c #49411A",
"9@	c #52491A",
"0@	c #584F1C",
"a@	c #6E6322",
"b@	c #433C12",
"c@	c #52481A",
"d@	c #4C431A",
"e@	c #6F6522",
"f@	c #63591F",
"g@	c #5C531A",
"h@	c #665B1D",
"i@	c #483F19",
"j@	c #5D541E",
"k@	c #60551D",
"l@	c #312910",
"m@	c #483D18",
"n@	c #60561E",
"o@	c #2E260F",
"p@	c #39320F",
"q@	c #564C18",
"r@	c #6A5D1F",
"s@	c #423716",
"t@	c #3B3312",
"u@	c #231E0B",
"v@	c #332C10",
"w@	c #433916",
"x@	c #574D1B",
"y@	c #453B17",
"z@	c #63561D",
"A@	c #413716",
"B@	c #2D2710",
"C@	c #1B180A",
"D@	c #474019",
"E@	c #494019",
"F@	c #2B2510",
"G@	c #453A17",
"H@	c #6C5F20",
"I@	c #413A11",
"J@	c #2F2A10",
"K@	c #2E280F",
"L@	c #312B10",
"M@	c #2C260F",
"N@	c #1C190A",
"O@	c #29240F",
"P@	c #2D2810",
"  . + + + + + + + + + + + + + + + + + + + + + + + + + + + + + + + + + + + + + + + + + + + + + @     ",
"+ # $ % & & * & & = - ; ; + * > , ' ; ; ) ! * ~ * * ! { ; ; ; ; ; ] ^ = * * * ~ & / ^ ; ; ; ^ ] ; + ",
"+ ] ( _ : : : : < [ } + + | 1 : 2 3 4 @ 5 6 7 : : : 7 8 9 0   + + { a 3 b c : : : d e f + g h i 4 + ",
"+ ] ! j k l l l m n ] + + | o l : p q + @ r s l l l l l 7 t u 4   + @ v w b k l l l x y z @ ' { 4   ",
"+ . . A B C C s D E | @ @ | F c G H I 4 @ , J C l l l l l l K L M   + @ 4 N o l l l O P i ^ @ ] @   ",
"Q R Q S T U V W X Y Q Q Z ` D  .j D ..+.Q Q / V @.#.k k l l l $.e %.^ + @ ~ &.k l l l *.=.= + Q @   ",
"-.; ) ;.z 5 f ^ + ;.;.;.~ 0 f >.,.,.u   ;.+ '.).!.j ~.{.C k l l l ].^.= @   [ 1 C C < l 7 [ 5 # @   ",
"                                            ;.;.4 /.(._.:.J <.o C C [.}.S . ).|.:.1.2.1 *.3.4.# @   ",
"+ + + + + + + + + + + + + + + + + + + + + @       ;.;.4 5.` 6.7.8.U 9.` Q 0.# , ' a.b.V c.d.e.. .   ",
") # ] ] ! ! , ^ ; ; ; | / * ~ ~ * * % * % ^ ] + @ @ 4   ;.;.+ 4 , 5 5   ;.;.      + g ' f.g.h.i.# + ",
"+ . + j.< 7 K I 4 @ ' [.7 : : : : : : : : k.l.~ + ; @ @ @               4   + + @ + ;.;.;.' m.;.+ + ",
"+ ] . :.n.o.1 p.,.@ + r 1 l l l l l l l l k q.q # ; ^ h ~ @ + + + + + + ;.;.;.r.^.]                 ",
"+ Q s.A t.u.v.w.!.@ @ | {.k l l l l l k x.y.z.A.B.C.D.E.F.G.H.& ! ! ! ] ] ] 5.N H I., + + + + @     ",
"+ # ) ^ J.  , 5.$ . g { K.L.l l l l M.y.N.O.O.O.O.O.O.O.O.P.Q.R.: : < S.g + | T.l k K U.V./ ! ] ] ] ",
"+ ]   4 4       @ . ] S , W.c l l X.Y.Z.`.O.O.O.O.O.O.O.O.O.O.N. +$.C .+;.  $ o l l l k : : < ++@   ",
"+ . + ;.0 ^ { 4   + @ # S & @+l X.#+$+O.O.O.O.O.O.O.O.O.O.O.O.O.`.%+&+*+  + % : l =+-+;+@+_ m ! @   ",
"+ ] . ^ e.>+,+M 4   + '+Q . g.)+!+$+O.O.O.O.O.O.O.O.O.O.O.O.O.O.O.~+{+, + ^ ]+: c |.^+/+(+_+:+<+4   ",
"+ . ) [+m *.l }+|+4   + '+S 1+2+3+O.O.O.O.O.O.O.O.O.O.O.O.O.O.O.O.O.4+5+@ 6+7+8+U h J.  4 9+- 0+@   ",
"+ . ;.* T.l l l : y a+  ;.;.b+c+O.O.O.O.O.O.O.O.O.O.O.O.O.O.O.O.O.O.O.d+e+t.S.f+g+h+4 @   ;.  ; @   ",
"+ . @ | s k l l l *.=.*+4 i+j+k+O.O.O.O.O.O.O.O.O.O.O.O.O.O.O.O.O.O.O.`.l+0 J.J.5 + ;.4 @     ; @   ",
"+ . . m+n+s C < l l *.e ^ o+O.O.O.O.O.O.O.O.O.O.O.O.O.O.O.O.O.O.O.O.O.O.C.p+4   + 0 q+r+%.,   ; @   ",
"+ # # # ` 7.:+j o k l s+= t+O.O.O.O.O.O.O.O.O.O.O.O.O.O.O.O.O.O.O.O.O.O.O.u+;.^ v+[.w+3.7 x+m+y+@   ",
"+ # + ;.  ^ 5.++z+b G A+- C.O.O.O.O.O.O.O.O.O.O.O.O.O.O.O.O.O.O.O.O.O.O.O.B+/ [ >+8 C+l l D+a+# @   ",
"+ . @ 4     ;.  E+2.F+]+l+O.O.O.O.O.O.O.O.O.O.O.O.O.O.O.O.O.O.O.O.O.O.O.O.G+H+: *.l l l k _+  ; @   ",
";.; ) ;.+ { 4     I+t.| J+O.O.O.O.O.O.O.O.O.O.O.O.O.O.O.O.O.O.O.O.O.O.O.O.`. +l l l l l : K+@ ; @   ",
"+ ] @ 5.L+M+,   | N+| ) C.O.O.O.O.O.O.O.O.O.O.O.O.O.O.O.O.O.O.O.O.O.O.O.O.G+%+: l l l l ].O++ ; @   ",
"+ ] + u P+k K U.Q+/ M ; C.O.O.O.O.O.O.O.O.O.O.O.O.O.O.O.O.O.O.O.O.O.O.O.O.G+R+$.l l l k S+%   ; @   ",
"+ ] + H.k l l : a.T++ U+V+O.O.O.O.O.O.O.O.O.O.O.O.O.O.O.O.O.O.O.O.O.O.O.O.V+W+X+l l l 1 Y+^ + ; @   ",
"+ ] 4 Z+l l l 7 b.@ # `+O.O.O.O.O.O.O.O.O.O.O.O.O.O.O.O.O.O.O.O.O.O.O.O.O.G+ @.@l < C +@u   + ] @   ",
"+ . ' n.@@d.@+#@$@] ;.%@O.O.O.O.O.O.O.O.O.O.O.O.O.O.O.O.O.O.O.O.O.O.O.O.O.O.&@*@B =@ .i 4 + ~ ^ @   ",
"+ # S -@V I.A %.4 @ @ o+O.O.O.O.O.O.O.O.O.O.O.O.O.O.O.O.O.O.O.O.O.O.O.O.O.O.;@>@,@'@U.)@+ <+!@5.@   ",
"+ # ) | 5 f 0     + ;.~@O.O.O.O.O.O.O.O.O.O.O.O.O.O.O.O.O.O.O.O.O.O.O.O.O.{@]@^@. S <+'.s./@m+# @   ",
"+ .       4   +   ;.+ (@O.O.O.O.O.O.O.O.O.O.O.O.O.O.O.O.O.O.O.O.O.O.O.O.O.V+_@l+@ '.:@# - ;.  ; @   ",
"+ . + + +   , 0 * m++ u+O.O.O.O.O.O.O.O.O.O.O.O.O.O.O.O.O.O.O.O.O.O.O.O.O.O.<@[@;.;.) + 4   + # @   ",
"+ # ;.] ] }@( |@1@r g (@O.O.O.O.O.O.O.O.O.O.O.O.O.O.O.O.O.O.O.O.O.O.O.O.O.O.2@l+    4 + ;.;.0 - @   ",
"+ m+@ + a+3@: k 7 4@' o+O.O.O.O.O.O.O.O.O.O.O.O.O.O.O.O.O.O.O.O.O.O.O.O.O.O.V+5@+ + ;.;.;.^.Y+m+@   ",
"+ 6@4 g 4 w =+l *.H / o+O.O.O.O.O.O.O.O.O.O.O.O.O.O.O.O.O.O.O.O.O.O.O.O.O.O.O.7@8@{ + ] $ 3 t ]+4   ",
"+ 9@* g 4 0@-+l l a@q+o+O.O.O.O.O.O.O.O.O.O.O.O.O.O.O.O.O.O.O.O.O.O.O.O.O.O.b@*@H c@@ + / T.*.d@4   ",
"+ > |@{ @   #@k l e@f@o+O.O.O.O.O.O.O.O.O.O.O.O.O.O.O.O.O.O.O.O.O.O.O.O.O.O.g@h@].[+@ + | T.: i@4   ",
"+ H.j@9+@   k@k l $.y l@O.O.O.O.O.O.O.O.O.O.O.O.O.O.O.O.O.O.O.O.O.O.O.O.O.O.G+ +7 m@@   $ T.: q 4   ",
"+ k@=@9++ + n@k l l j o@O.O.O.O.O.O.O.O.O.O.O.O.O.O.O.O.O.O.O.O.O.O.O.O.O.O.p@q@r@s@+ @ | c : i 4   ",
"+ w w 5.  @ x+l l : h.t@O.O.O.O.O.O.O.O.O.O.O.O.O.O.O.O.O.O.O.O.O.O.O.O.O.O.u@v@w@. . @ & : : q 4   ",
"+ x@y@@ @ @ [.d.o.z@A@B@O.O.O.O.O.O.O.O.O.O.O.O.O.O.O.O.O.O.O.O.O.O.O.O.O.O.C@l+@ + # A@D@7 o j.@   ",
"+ /@S Q Q S A+I.E@^ ;.F@O.O.O.O.O.O.O.O.O.O.O.O.O.O.O.O.O.O.O.O.O.O.O.O.O.O.V+o++ g ] G@t.H@T m+@   ",
"+ ] + ;.;.  5 f 0     (@O.O.O.O.O.O.O.O.O.O.O.O.O.O.O.O.O.O.O.O.O.O.O.O.O.O.O.`++ + + # Z / , ; @   ",
"+ ]           4 + + + (@O.O.O.O.O.O.O.O.O.O.O.O.O.O.O.O.O.O.O.O.O.O.O.O.O.O.I@J@. + + +       ; @   ",
"+ Q @ @ @ @ @ + # + . K@O.O.O.O.O.O.O.O.O.O.O.O.O.O.O.O.O.O.O.O.O.O.O.O.O.O.G+L@m+Q . @ @ + + ; @   ",
";.0+0+# 0+] . Q # # 0+M@O.O.O.O.O.O.O.O.O.O.O.O.O.O.O.O.O.O.O.O.O.O.O.O.O.O.O.K@+.# ; # # # | ] +   ",
"  ;.+ + ;.      ;.+ ;.(@O.O.O.O.O.O.O.O.O.O.O.O.O.O.O.O.O.O.O.O.O.O.O.O.O.O.N@l+  ;.;.;.;.;.  )     ",
"+ + 4 4 4 4 4 4 4 4 4 (@O.O.O.O.O.O.O.O.O.O.O.O.O.O.O.O.O.O.O.O.O.O.O.O.O.O.O@P@4 4 4 4 4 4 + ]     "};
