/* XPM */
static char * wall_xpm[] = {
"50 50 532 2",
"  	c #3D3717",
". 	c #3E3616",
"+ 	c #3D3617",
"@ 	c #443C1A",
"# 	c #877B31",
"$ 	c #837727",
"% 	c #3D3516",
"& 	c #423B18",
"* 	c #453D1A",
"= 	c #473E1A",
"- 	c #463E1A",
"; 	c #453E1A",
"> 	c #463F1A",
", 	c #423A17",
"' 	c #3E3716",
") 	c #3C3516",
"! 	c #463E19",
"~ 	c #473F1A",
"{ 	c #413A18",
"] 	c #403817",
"^ 	c #3C3616",
"/ 	c #453D19",
"( 	c #443D19",
"_ 	c #433C19",
": 	c #3F3817",
"< 	c #3D3616",
"[ 	c #403918",
"} 	c #443C19",
"| 	c #857931",
"1 	c #817426",
"2 	c #70662D",
"3 	c #857932",
"4 	c #8B7E32",
"5 	c #8B7F36",
"6 	c #584E1D",
"7 	c #4D4219",
"8 	c #746929",
"9 	c #655A1F",
"0 	c #3E3717",
"a 	c #3E3617",
"b 	c #807534",
"c 	c #8B7E33",
"d 	c #8A7E32",
"e 	c #72682C",
"f 	c #49411B",
"g 	c #3E3817",
"h 	c #3F3717",
"i 	c #4A4119",
"j 	c #73692E",
"k 	c #8B7F37",
"l 	c #877B32",
"m 	c #897D32",
"n 	c #756B31",
"o 	c #3F3617",
"p 	c #574E1C",
"q 	c #4F461B",
"r 	c #7B6F24",
"s 	c #5D5424",
"t 	c #7A6F2F",
"u 	c #867A28",
"v 	c #877A28",
"w 	c #807326",
"x 	c #584D1C",
"y 	c #857827",
"z 	c #635A1F",
"A 	c #484019",
"B 	c #6F662C",
"C 	c #7F7227",
"D 	c #877A29",
"E 	c #8A7D32",
"F 	c #71682D",
"G 	c #72682D",
"H 	c #81742C",
"I 	c #867928",
"J 	c #786E2E",
"K 	c #5E541E",
"L 	c #7D7126",
"M 	c #5E5524",
"N 	c #82762D",
"O 	c #7F7226",
"P 	c #7D7025",
"Q 	c #64581E",
"R 	c #53491B",
"S 	c #413A17",
"T 	c #827526",
"U 	c #6C6121",
"V 	c #5B511D",
"W 	c #7B702E",
"X 	c #807327",
"Y 	c #887B29",
"Z 	c #7F742F",
"` 	c #544B1D",
" .	c #71662D",
"..	c #62591F",
"+.	c #7C6F25",
"@.	c #3E3516",
"#.	c #3F3415",
"$.	c #413817",
"%.	c #71662C",
"&.	c #62561E",
"*.	c #63571E",
"=.	c #5D521C",
"-.	c #4D4218",
";.	c #463C17",
">.	c #413816",
",.	c #453B18",
"'.	c #73682D",
").	c #695D20",
"!.	c #675B1F",
"~.	c #4C4219",
"{.	c #453C17",
"].	c #463D19",
"^.	c #766B2D",
"/.	c #7E7127",
"(.	c #796E2E",
"_.	c #857828",
":.	c #5E551E",
"<.	c #5E5525",
"[.	c #85782D",
"}.	c #3B3616",
"|.	c #3C3617",
"1.	c #453E19",
"2.	c #433C18",
"3.	c #49421A",
"4.	c #463F19",
"5.	c #443D18",
"6.	c #3F3516",
"7.	c #463C19",
"8.	c #70662C",
"9.	c #74692D",
"0.	c #837731",
"a.	c #837730",
"b.	c #807530",
"c.	c #4F471C",
"d.	c #605725",
"e.	c #837627",
"f.	c #847727",
"g.	c #574D1C",
"h.	c #74692E",
"i.	c #4E4319",
"j.	c #493E19",
"k.	c #51461B",
"l.	c #61551E",
"m.	c #6F6221",
"n.	c #786B24",
"o.	c #7E7125",
"p.	c #6D6227",
"q.	c #51471A",
"r.	c #3F3616",
"s.	c #443A18",
"t.	c #766A2E",
"u.	c #726628",
"v.	c #6D6221",
"w.	c #473E19",
"x.	c #5D5425",
"y.	c #61582C",
"z.	c #443D1B",
"A.	c #403717",
"B.	c #443A17",
"C.	c #50451A",
"D.	c #5A4E1C",
"E.	c #60541D",
"F.	c #61551D",
"G.	c #5F531D",
"H.	c #3D3416",
"I.	c #403917",
"J.	c #4C4119",
"K.	c #453C18",
"L.	c #746722",
"M.	c #7C7025",
"N.	c #564D1C",
"O.	c #827730",
"P.	c #71672D",
"Q.	c #433C1A",
"R.	c #55491A",
"S.	c #5D511D",
"T.	c #554A1B",
"U.	c #3F3615",
"V.	c #7C7024",
"W.	c #463F1B",
"X.	c #48401B",
"Y.	c #615725",
"Z.	c #7D7338",
"`.	c #817530",
" +	c #4F481C",
".+	c #403A18",
"++	c #716625",
"@+	c #877A2A",
"#+	c #6F652C",
"$+	c #7B6E26",
"%+	c #766923",
"&+	c #64591F",
"*+	c #5F5625",
"=+	c #887C32",
"-+	c #716623",
";+	c #4B431A",
">+	c #6E652C",
",+	c #4F471A",
"'+	c #4E461A",
")+	c #7B702C",
"!+	c #7F7330",
"~+	c #5F5524",
"{+	c #483E18",
"]+	c #5D521D",
"^+	c #554B1B",
"/+	c #574C1B",
"(+	c #827630",
"_+	c #7D7125",
":+	c #60561E",
"<+	c #443D1A",
"[+	c #6E6536",
"}+	c #47401C",
"|+	c #413918",
"1+	c #605825",
"2+	c #7B6F26",
"3+	c #3F3917",
"4+	c #413917",
"5+	c #80732C",
"6+	c #695E20",
"7+	c #433B17",
"8+	c #73692D",
"9+	c #877B29",
"0+	c #887B2B",
"a+	c #4C431A",
"b+	c #8B7F33",
"c+	c #897D2E",
"d+	c #807430",
"e+	c #6B612A",
"f+	c #433B19",
"g+	c #776C2E",
"h+	c #817527",
"i+	c #7A6D24",
"j+	c #6D6121",
"k+	c #5B4F1C",
"l+	c #443917",
"m+	c #82752D",
"n+	c #493D18",
"o+	c #897C2E",
"p+	c #897C32",
"q+	c #48401A",
"r+	c #847831",
"s+	c #6C5F20",
"t+	c #443C17",
"u+	c #443B19",
"v+	c #73682E",
"w+	c #403816",
"x+	c #827527",
"y+	c #776B24",
"z+	c #756823",
"A+	c #796C24",
"B+	c #7A6E24",
"C+	c #423B17",
"D+	c #574E1D",
"E+	c #5B521F",
"F+	c #3E3517",
"G+	c #7D7027",
"H+	c #726521",
"I+	c #665A1F",
"J+	c #59501C",
"K+	c #625826",
"L+	c #867A35",
"M+	c #796D25",
"N+	c #7B6E24",
"O+	c #5F521D",
"P+	c #564D1B",
"Q+	c #47401A",
"R+	c #61541D",
"S+	c #4D4319",
"T+	c #473D18",
"U+	c #504519",
"V+	c #564B1B",
"W+	c #5E521D",
"X+	c #6F652D",
"Y+	c #8E8237",
"Z+	c #887B2A",
"`+	c #5F5624",
" @	c #70652C",
".@	c #65591F",
"+@	c #645A1F",
"@@	c #463D1A",
"#@	c #56491A",
"$@	c #594E1C",
"%@	c #4D441B",
"&@	c #887C35",
"*@	c #6B5F26",
"=@	c #403617",
"-@	c #3D3515",
";@	c #887C2E",
">@	c #625926",
",@	c #423A18",
"'@	c #655B1F",
")@	c #403716",
"!@	c #403616",
"~@	c #4A4018",
"{@	c #50461A",
"]@	c #4C4319",
"^@	c #52491C",
"/@	c #51481B",
"(@	c #635A26",
"_@	c #5F551E",
":@	c #615825",
"<@	c #7F7430",
"[@	c #817634",
"}@	c #5F5620",
"|@	c #8D8137",
"1@	c #50471C",
"2@	c #7E7333",
"3@	c #534A1B",
"4@	c #60551E",
"5@	c #7E7226",
"6@	c #5C511E",
"7@	c #695E26",
"8@	c #776A24",
"9@	c #655B20",
"0@	c #655C26",
"a@	c #8B7F32",
"b@	c #554D23",
"c@	c #413B18",
"d@	c #5A501E",
"e@	c #746A2D",
"f@	c #8A7E33",
"g@	c #3F3716",
"h@	c #3C3515",
"i@	c #756922",
"j@	c #7B6F25",
"k@	c #6E6221",
"l@	c #564C1B",
"m@	c #8B8036",
"n@	c #857928",
"o@	c #4F451B",
"p@	c #746A2E",
"q@	c #6C611F",
"r@	c #7A6E25",
"s@	c #827734",
"t@	c #403A17",
"u@	c #6A5E20",
"v@	c #463E18",
"w@	c #52481A",
"x@	c #4D461C",
"y@	c #483D18",
"z@	c #756B2E",
"A@	c #5C521D",
"B@	c #433A18",
"C@	c #776D2E",
"D@	c #6E6320",
"E@	c #423C19",
"F@	c #4C441A",
"G@	c #6C6221",
"H@	c #60531D",
"I@	c #766C2E",
"J@	c #61571E",
"K@	c #483F18",
"L@	c #81752C",
"M@	c #786C24",
"N@	c #72682E",
"O@	c #433B18",
"P@	c #61561E",
"Q@	c #645A20",
"R@	c #4C441C",
"S@	c #847828",
"T@	c #584E1C",
"U@	c #847728",
"V@	c #433A17",
"W@	c #85792D",
"X@	c #7D7024",
"Y@	c #5B5323",
"Z@	c #4E461B",
"`@	c #736723",
" #	c #5E511C",
".#	c #4D4419",
"+#	c #4E471D",
"@#	c #584F1D",
"##	c #7D712B",
"$#	c #64581F",
"%#	c #7E7330",
"&#	c #786C23",
"*#	c #625825",
"=#	c #867929",
"-#	c #4D421A",
";#	c #544B1B",
">#	c #675A1F",
",#	c #443B17",
"'#	c #6D6322",
")#	c #847729",
"!#	c #51481A",
"~#	c #72672D",
"{#	c #887B2E",
"]#	c #766B2E",
"^#	c #423917",
"/#	c #5D531D",
"(#	c #736722",
"_#	c #4B4119",
":#	c #52481B",
"<#	c #645B26",
"[#	c #847827",
"}#	c #4D441A",
"|#	c #47401B",
"1#	c #5B501C",
"2#	c #62571E",
"3#	c #433917",
"4#	c #574E1B",
"5#	c #6C6020",
"6#	c #5E541D",
"7#	c #59501E",
"8#	c #8C8036",
"9#	c #776A23",
"0#	c #6B5F20",
"a#	c #685C1F",
"b#	c #5B521D",
"c#	c #4E4419",
"d#	c #453E18",
"e#	c #463D18",
"f#	c #493E18",
"g#	c #3E3515",
"h#	c #605625",
"i#	c #706527",
"j#	c #6D6021",
"k#	c #4F4419",
"l#	c #52471A",
"m#	c #847829",
"n#	c #453D18",
"o#	c #3E3416",
"p#	c #887C36",
"q#	c #82762C",
"r#	c #7F7225",
"s#	c #6B5E20",
"t#	c #534719",
"u#	c #453B17",
"v#	c #3F3515",
"w#	c #473E17",
"x#	c #49411A",
"y#	c #5F5725",
"z#	c #52471C",
"A#	c #6D6127",
"B#	c #5C501C",
"C#	c #64591E",
"D#	c #65591E",
"E#	c #54491A",
"F#	c #443C18",
"G#	c #6E642C",
"H#	c #817529",
"I#	c #453F19",
"J#	c #897D31",
"K#	c #4B431B",
"L#	c #625820",
"M#	c #675D27",
"N#	c #554C1B",
"O#	c #4E451A",
"P#	c #59501D",
"Q#	c #877C35",
"R#	c #7C712F",
"S#	c #48411A",
"T#	c #5D5525",
"U#	c #877B2D",
"V#	c #4A431C",
"W#	c #52491A",
"X#	c #7F732B",
"Y#	c #6E6322",
"Z#	c #5E5625",
"`#	c #84772D",
" $	c #423817",
".$	c #6C6227",
"+$	c #706528",
"@$	c #62581F",
"#$	c #6F6522",
"$$	c #63591F",
"%$	c #807426",
"&$	c #756A2E",
"*$	c #594F1C",
"=$	c #483F19",
"-$	c #5F551F",
";$	c #494119",
">$	c #847731",
",$	c #6D6122",
"'$	c #594E1B",
")$	c #473F19",
"!$	c #897D35",
"~$	c #796D24",
"{$	c #5C511D",
"]$	c #7A6D25",
"^$	c #6A5D1F",
"/$	c #423716",
"($	c #6A5F27",
"_$	c #493F19",
":$	c #7A6D27",
"<$	c #776B29",
"[$	c #685D1F",
"}$	c #494019",
"|$	c #544A1B",
"1$	c #7F7433",
"2$	c #52491B",
"3$	c #433916",
"4$	c #4A3F1A",
"5$	c #7F7228",
"6$	c #7B6F2A",
"7$	c #63561D",
"8$	c #413716",
"9$	c #4A431B",
"0$	c #473E18",
"a$	c #5B5123",
"b$	c #70672D",
"c$	c #453A17",
"d$	c #877B36",
"e$	c #695E25",
"f$	c #3C3517",
"g$	c #8A7F36",
"h$	c #605726",
"i$	c #433D1A",
"j$	c #6D632B",
"k$	c #433918",
"l$	c #5C5424",
"m$	c #5E531D",
"n$	c #63581E",
"o$	c #665B1F",
"p$	c #7F7534",
"q$	c #83762D",
"r$	c #6E6222",
"s$	c #4F451A",
"t$	c #7D7026",
"u$	c #7D712F",
"v$	c #5C5323",
"w$	c #564C1D",
"x$	c #554C1C",
"y$	c #50471A",
"z$	c #50471B",
"A$	c #776C23",
"B$	c #766A22",
"C$	c #6F6420",
"D$	c #796D23",
"E$	c #746821",
"F$	c #877A2E",
"G$	c #7F742E",
"  . + + + + + + + + + + + + + + + + + + + + + + + + + + + + + + + + + + + + + + + + + + + + + @ # $ ",
"+ % & * = - ; > - , ' ) ) + ! ~ { ] ) ) ^ / ; ( ; ; _ : ) ) ) ) ) < : ( ; * * ( - ( [ ^ ) ) : } | 1 ",
"+ < 2 3 4 4 4 4 5 6 7 + + } 5 4 8 9 0 a & b c 4 4 4 d e f g   + + h i j k l 4 4 4 m n ~ + o p q m r ",
"+ < s t u v v v w x < + + ( 4 v y z A + a B C v v v v D E F ; 0   + a } G H I v v D J K [ a ] h j L ",
"+ . . M N O O P Q R S a a _ m 1 T U V 0 a } W X v v v v v Y Z ` &   + a 0  .C v v v I ..i : a < G +.",
"@.#.@.$.%.&.*.=.-.;.@.@.>.,.'.).!.Q ~.{.@.@.].^./.X I I v v D d G > : + a ( (.u v v v _.:., + @.<.[.",
"}.) ^ |.[ { 1.: + |.|.|.2.g 1.3.4.4.5.  |.+ 6.7.8.9.0.a.O I v v Y b.c., a   d.N X X e.v f.g.{ % 0 h.",
"                                            |.|.0 i.j.k.l.m.n.o.O C p.q.r.. s.t.'.'.u.+._.v.w.% a x.",
"y.z.+ + + + + + + + + + + + + + + + + + + a       |.|.0 A.B.C.D.E.F.G.B.@.H.% I.] J.K.*.L.M.N.. .   ",
"O.P.< < _ _ _ [ ) ) ) Q.( * ( ( ; ; ( * ( [ < + a a 0   |.|.+ 0 I.{ {   |.|.      + o ] R.S.T.U.% + ",
"V.m W.X.5 d m Y.0 a [ Z.c 4 4 4 4 4 4 4 4 `. +2.+ ) a a a               0   + + a + |.|.|.] .+|.+ + ",
"++@+#+8.$+%++.&+4.a + *+=+v v v v v v v v u -+;+o   & >+- a + + + + + + |.|.|.,+'+<                 ",
")+!+,.M ~+{+]+^+/+a a _ (+I v v v v v v v v _+:+h + <+3 m j [+}+_ _ _ < < < |+G j 1+{ + + + + a     ",
"2+8.^ : 3+  I.A.4+. o h *+5+v v v v v v v v y 6+7+a a 8+D 9+0+4 4 4 m a+o + ( b+Y c+d+F *+} _ < < < ",
"e+f+  0 0       a . < r.|+g+h+v v v v v I i+j+k+l+@.% 2 m+v v v v v O n+|.  _ 4 v v v D o+d p+K.a   ",
"+ . + |.g : h 0   + a % r.q+r+v v v v o.s+x t+I.0 ^ < u+v+5 C I v T F.w+  + @ 4 v x+y+z+A+B+w C+a   ",
"+ < . { D+E+#+} 0   + F+@.. %.G+1 w H+I+J+2.          + h K+L+M+N+O+P+I.+ : Q+d 1 R+S+T+U+V+W+$.0   ",
"+ . ^ X+Y+4 Z+d+`+h   + F+r.K. @.@E.P++@p   + + + a a   |.a @@V #@, & a a $@%@&@*@p 3+  0 =@' -@a   ",
"+ . |.X.4 v v D ;@>@,@  |.|.|.0 5.& '@{ + + I.'+7+< ) +       o r.)@6.!@~@{@]@^@:+/@0 a   |.  ) a   ",
".+|+a ( d I v v v ;@(@w+0           +   { V _@:@;+0 + ^ ,@h   |.+ % H.S S g 3+3+{ + |.0 a     ) a   ",
"<@[@|+2.&@a.X e.v v ;@G 3++ + + +     '+_@}@<@|@1@0   _ 2@M 0     |.+       0   + g 3@4@> {   ) a   ",
"5@;@M % w.6@7@!.o.I v 8@7+|.+ + _ } ~ 9@0@E D a@b@0 + _ b+;@d.< a a   + + + |.: c@6+d@e@f@P.g@h@a   ",
"i@j@F |.  : A.t+k@N+T l@:   0 ~ m@4 4 4 c+v v n@o@h + } 4 Y p@, ) |.|.  3@3@* 6 E+8+b.Y v 6+,@% a x.",
"q@r@s@{     |.  t@u@j+v@    w@x@4 v v v v v v 1 y@+   _ 4 Y z@A@o + B@P.8+C@d 4 4 Z+D v I V+  ) 0 #+",
"D@e.b+E@+ h 0     F@{@&   { A@G@v v v v v I o.H@{@: + ( 4 Y I@J@a + } l D Y v v v v v v y K@a % d.L@",
"M@|@N@O@M *+{   S P@S 0 + ! Q@_.v v v v T m.F.g.I.a a R@a@v S@T@: o + 8+U@v v v v v v v j@V@[ P.W@X@",
"c+G + / b.c+d+G Y@7+& a 4+Z@`@w I v v O  #.#p {@+ + p +#4 v _.@#,@a a s ##v v v v v v I $#O@.+%#D &#",
"<.|++ *#c+v D =#-#;#+ A.T@S+l.j+n.e.I >#,#3+] a + 3@D+<@D v v '#g.a a + P.)#v v v v v +.!#: + & ~#{#",
"+ < 0 ]#Y v v f.K.a % w+5.{ ^#/#N.(#1 _#;#+ a ] :#:+<#c+v v v [#}#4+a + |#d v v v e.O 1#5.  + < 0 <.",
"+ . _ =+1 M.A+2#3#< |.      + + o 4#5#B.a + K@6#7#8+;@v v v v v G@B@o a _ 8#x+x+9#0#a#i 0 + 2.: a   ",
"2 O@4+G $#b#c#d#0 a a   + + a + |.0 e#@.. . $.>@m Y v v v v v I P f#!@@.g#h#i#j#k#}#'@^#+ $.l#A.a   ",
"m#8.^ S { 1.g     + |.|.  ;#n#.     + a o#@.s p#q#r#1 1 1 1 P s#t#)@^ ) ) 0 _#u#. r.$.6.v#w#g@% a   ",
"r@P.      0   +   |.+ 0 x#G G y#& 0   + + @.$.z#A#B#C#D#D#D#E#{.^ +         |.+ a 6.g#% ' |.  ) a   ",
"M.8.+ + +   I.g F#g@+ ) G#H#Y o+<@M : 0         0 C+d#1.I#1.    a + + + + a a   |.|.^ + 0   + % a   ",
"J#- |.< a K#L#M#:@N#o + > d v v D ;@G & + a 0               + + |.|.+ O#h _ f+0     0 + |.|.g ' a   ",
"P#g@a + * Q#d c+S@T@] + { R#v v v v D :@h |.|.+ + + + + + + |.|.|.. w+S#G d E *++ + |.|.|.'+!#g@a   ",
"+ ,#0 o 0 8+U@v _.U 7+a + G D v v v v r@w.h a + { T#} ( ( [ ) % % ( G U#D v v E V#h + < O@G P.w.0   ",
"+ W#F#o 0 <.X#v v Y#3@o + Z#`#v v v v I :. $a   ( |@4 4 4 .$a a + ~#Z+v v v v D +$w@a + ; b+=#a+0   ",
"+ w.@$h a   9.9+v #$$$o a .+R#v v v v v %$u#+ + @@4 v v _.i o + a &$Y v v v v v j@*$a + ( 4 y =$0   ",
"+ #+-$=@a   G Y v [#K ^#a   G Y v v v v z+A.+ + = 4 v v y ;$o a f+>$I v v v v I f.y@a   _ 4 y A 0   ",
"+ ~#,$=@+ + F Y v v !.o + a G D e.1 T o.'$o a a )$!$P P ~${$] o a P.]$N+N+N+A+A+^$/$+ a _ 4 y i 0   ",
"+ P.($A.  a G Y v y T._$+ o P.:$<$[$a#*$)@% % -@}$` ;#|${@t+. g#% - 1$2$2${@O#S+3$. . a - 4 y A 0   ",
"+ X+4$a a a 8+5$6$7$8$' < % <.I@9$3.1.I.+ +       g g g       + +   Q.g g       a + % 8$f d o.0$a   ",
"+ a$$.@.@.r.Y.b$K#: |.+ |.|.  g         0     0       0       0     0     0 0 a + o < c$h#d$e$g@} 0 ",
"+ < + |.|.  { 1.g       0   + + + + + |.|.|.+   +   0 0 + |.|.|.f$|.  +     + + + + + % B@> & O@g$h$",
"i$|+          0 + + + + |.I.g 1.:+n#^ + < V@; P.8+'.G '.j$k$0 + @.< *+8+'.G '.l$. + + +       - b+a@",
"b+ .a a a a a + % + . w+4+m$$@n$o$=$o a . ,.p$q$L L +.+.r$3#a a A.s$G q$+.t$+.&+g@@.. a a + |+%#o+&#",
"$ u$v$% -@< . @.% % -@7+/@/@s$2$|$t+. % % e#w$x$^+^+y$2$i % % % $.w+z$:#2$3@y$}${.% ) % % % =$d A$B$",
"&#_+<@Q.|.      |.+ |.  g g   g g     |.|.  g g g g   g     + |.    g   g g       |.|.|.|.|.i$d C$D$",
"V.E$F$P.0 0 0 0 0 0 0 0 0 0 0 0 0 0 0 0 0 0 0 0 0 0 0 0 0 0 0 0 0 0 0 0 0 0 0 0 0 0 0 0 0 0 <+|@G$a."};
