/* XPM */
static char *_39542cb3ef94b4dd8ce44ce2f0f6021ngAAeV6vfDULDvG8[] = {
/* columns rows colors chars-per-pixel */
"50 50 5 1 ",
"  c #0E5907",
". c #A8A810",
"X c #EDED1F",
"o c #CCCC21",
"O c #D1D137",
/* pixels */
"                                                  ",
"                                                  ",
"                                                  ",
"                     OOOOOOOO                     ",
"                   OOOOOOOOOOO                    ",
"                  OOOXXXXXOOOOO                   ",
"                 OOXXoooooXXOOOO                  ",
"                OOXoooooooooXOOOO                 ",
"                OXoooooooooooXOOOO                ",
"               OXoooooooooooooXOOOO               ",
"               OXoooooooooooooXXOOOO              ",
"              OXooooooXXXooooooXOOOO              ",
"              OXoooooXXXXXoooooXOOOOO             ",
"             OXooooXXXXXXXXXooooXOOOO             ",
"             OXooooXXXXXXXXXXoooXOOOOO            ",
"             OXoooXXXXXXXXXXXoooXOOOOO            ",
"            OXooooXXXX...XXXXooooXOOOOO           ",
"            OXoooXXXX.XXX.XXXXoooXOOOOO           ",
"            OXoooXXX.XXXXX.XXXoooXOOOOO           ",
"            OXoooXX.XXXXXXX.XXoooXOOOOO           ",
"            OXoooXX.XXXXXXX.XXoooXOOOOO           ",
"            XooooXX.XXXXXXX.XXooooXOOOO           ",
"            XoooXXX.XXXXXXX.XXXoooXOOOO           ",
"            XoooXX.XXXXXXXXX.XXoooXOOOO           ",
"            XoooXX.XXXXXXXXX.XXoooXOOOO           ",
"            XoooXX.XXXXXXXXX.XXoooXOOOO           ",
"            XoooXX.XXXXXXXXX.XXoooXOOOO           ",
"            XoooXX.XXXXXXXXX.XXoooXOOOO           ",
"            XoooXXX.XXXXXXX.XXXoooXOOOO           ",
"            XooooXX.XXXXXXX.XXooooXOOOO           ",
"             XoooXX.XXXXXXX.XXoooXOOOOO           ",
"             XoooXX.XXXXXXX.XXoooXOOOOO           ",
"             XoooXXX.XXXXX.XXXoooXOOOOO           ",
"             XoooXXXX.XXX.XXXXoooXOOOOO           ",
"             XooooXXXX...XXXXooooXOOOO            ",
"              XoooXXXXXXXXXXXoooXOOOOO            ",
"              XooooXXXXXXXXXooooXOOOO             ",
"              XooooXXXXXXXXXooooXOOOO             ",
"               XoooooXXXXXoooooXOOOO              ",
"               XooooooXXXooooooXOOOO              ",
"               XXoooooooooooooXOOOO               ",
"                XooooooooooooXOOOO                ",
"                 XoooooooooooXOOO                 ",
"                  XoooooooooXOOO                  ",
"                   XXoooooXXOOO                   ",
"                   OOXXXXXOOOO                    ",
"                     OOOOOOOO                     ",
"                                                  ",
"                                                  ",
"                                                  "
};
