/* XPM */
static char *cebd064c763d476f88910fd82324cd56zxawUKigUwmukIdf[] = {
/* columns rows colors chars-per-pixel */
"50 50 7 1 ",
"  c #0E5907",
". c #A8A810",
"X c #D4D41B",
"o c #EDED1F",
"O c #CCCC21",
"+ c #D5D52F",
"@ c #D1D137",
/* pixels */
"                                                  ",
"                                                  ",
"                                                  ",
"                                                  ",
"                    @@@@@@@@@                     ",
"                 @@@ooooooooo@@@                  ",
"               @@oooOOOOOOOOOooo@@                ",
"             @@ooOOOOOOOOOOOOOOOoo@@              ",
"            @ooOOOOOOOOOOOOOOOOOOOoo@             ",
"          @@oOOOOOOOOOOOOOOOOOOOOOOOo@@           ",
"         @OoOOOOOOOOOOOOOOOOOOOOOOOOOoO@          ",
"        @OoOOOOOOOOOOoooooooOOOOOOOOOOoO@         ",
"        @oOOOOOOOOOooOOOOOOOooOOOOOOOOOo@         ",
"       @oOOOOOOOOooOOXXXXXXXOOooOOOOOOOOo@        ",
"      @oOOOOOOOOoOXXXoooooooXXXOoOOOOOOOOo@       ",
"      @oOOOOOOOoOXoooooooooooooXOoOOOOOOOo@       ",
"     OoOOOOOOOoOXooooo.....oooooXOoOOOOOOOo@      ",
"     OoOOOOOOoOXoooo..ooooo..ooooXOoOOOOOOo@      ",
"    OoOOOOOOOo+ooo..ooooooooo..oooXoOOOOOOOo@     ",
"    OoOOOOOOo+ooo.ooooooooooooo.oooXoOOOOOOo@     ",
"    OoOOOOOOoXooo.ooooooooooooo.oooXoOOOOOOo@     ",
"   @oOOOOOOOoXoo.ooooooooooooooo.ooXoOOOOOOOo@    ",
"   @oOOOOOOoXooo.ooooooooooooooo.oooXoOOOOOOo@    ",
"   @oOOOOOOoXoo.ooooooooooooooooo.ooXoOOOOOOo@    ",
"   @oOOOOOOoXoo.ooooooooooooooooo.ooXoOOOOOOo@    ",
"   @oOOOOOOoXoo.ooooooooooooooooo.ooXoOOOOOOo@    ",
"   @oOOOOOOoXoo.ooooooooooooooooo.ooXoOOOOOOo@    ",
"   @oOOOOOOoXoo.ooooooooooooooooo.ooXoOOOOOOo@    ",
"   @oOOOOOOoXooo.ooooooooooooooo.oooXoOOOOOOo@    ",
"   @oOOOOOOOoXoo.ooooooooooooooo.ooXoOOOOOOOo@    ",
"    @oOOOOOOoXooo.ooooooooooooo.oooXoOOOOOOo@     ",
"    @oOOOOOOoXooo.ooooooooooooo.oooXoOOOOOOo@     ",
"    @oOOOOOOOoXooo..ooooooooo..oooXoOOOOOOOo@     ",
"     @oOOOOOOoOXoooo..ooooo..ooooXOoOOOOOOo@      ",
"     @oOOOOOOOoOXooooo.....oooooXOoOOOOOOOo@      ",
"      @oOOOOOOOoOXoooooooooooooXOoOOOOOOOo@       ",
"      @oOOOOOOOOoOXXXoooooooXXXOoOOOOOOOOo@       ",
"       @oOOOOOOOOooOOXXXXXXXOOooOOOOOOOOo@        ",
"        @oOOOOOOOOOooOOOOOOOooOOOOOOOOOo@         ",
"        @OoOOOOOOOOOOoooooooOOOOOOOOOOoO@         ",
"         @OoOOOOOOOOOOOOOOOOOOOOOOOOOoO@          ",
"          @@oOOOOOOOOOOOOOOOOOOOOOOOo@@           ",
"            @ooOOOOOOOOOOOOOOOOOOOoo@             ",
"             @@ooOOOOOOOOOOOOOOOoo@@              ",
"               @@oooOOOOOOOOOooo@@                ",
"                 @@@ooooooooo@@@                  ",
"                    @@@@@@@@@                     ",
"                                                  ",
"                                                  ",
"                                                  "
};
