/* XPM */
static char * coin _side_xpm[] = {
"25 25 15 1",
" 	c #0E5907",
".	c #CFCF30",
"+	c #CECE2D",
"@	c #CCCC22",
"#	c #CCCC21",
"$	c #CDCD27",
"%	c #CECE2C",
"&	c #D0D01E",
"*	c #D1D11E",
"=	c #DCDC20",
"-	c #CDCD21",
";	c #CECE21",
">	c #DDDD27",
",	c #DCDC21",
"'	c #D4D435",
"                         ",
"                         ",
"          .+++.          ",
"          @###@          ",
"          #####          ",
"          #####          ",
"          #####          ",
"          #####          ",
"          #####          ",
"          #####          ",
"          @$@$#          ",
"          @+@+#          ",
"          @+@+#          ",
"          @+@+#          ",
"          @%@%#          ",
"          #@#@#          ",
"          #####          ",
"          #####          ",
"          &&&&*          ",
"          =====          ",
"          -;;-#          ",
"          -###-          ",
"          >,,,>          ",
"           '''           ",
"                         "};
