/* XPM */
static char * coin_left_xpm[] = {
"25 25 46 1",
" 	c #0E5907",
".	c #D1D137",
"+	c #D2D236",
"@	c #D9D932",
"#	c #DEDE2D",
"$	c #D3D336",
"%	c #DDDD28",
"&	c #D5D521",
"*	c #CECE21",
"=	c #DCDC22",
"-	c #D8D831",
";	c #CDCD21",
">	c #CCCC21",
",	c #D5D522",
"'	c #D9D931",
")	c #DBDB30",
"!	c #DDDD20",
"~	c #D6D620",
"{	c #E3E321",
"]	c #DDDD27",
"^	c #E5E520",
"/	c #EDED1F",
"(	c #ECEC1F",
"_	c #D8D832",
":	c #D4D435",
"<	c #DCDC21",
"[	c #EBEB1F",
"}	c #DEDE2C",
"|	c #DFDF2D",
"1	c #DEDE1C",
"2	c #D1D119",
"3	c #D2D219",
"4	c #DFDF2C",
"5	c #DEDE27",
"6	c #DEDE20",
"7	c #E9E91F",
"8	c #EAEA1F",
"9	c #EAEA1E",
"0	c #E9E91E",
"a	c #D3D31A",
"b	c #D5D520",
"c	c #D2D237",
"d	c #E4E420",
"e	c #DFDF30",
"f	c #DEDE29",
"g	c #D3D335",
"                         ",
"           ...           ",
"         +@##$.          ",
"        $%&**=-.         ",
"        %;>>>>,'.        ",
"       )&>;!~>;{+.       ",
"       ];&^/(!;&_..      ",
"      :<;^/[(/!;}..      ",
"      |*~(123[^;=+.      ",
"      4*!11/[3[*<+..     ",
"      5;62[//27*&_..     ",
"      !;82(//11!*#..     ",
"      !*72///[2!*#..     ",
"      !*72///93!*#..     ",
"      !;^2[//30~*#..     ",
"      7;!39//27*<$..     ",
"      8*![a911[;<+.      ",
"       b*[[31/!;%c.      ",
"       !>!(//[**#..      ",
"       8*;~[d*>=$.       ",
"        !>>;;>&-.        ",
"         b;>>*%c         ",
"         ef<=#+          ",
"           :g.           ",
"                         "};
