/* XPM */
static char * coin_right_xpm[] = {
"25 25 42 1",
" 	c #0E5907",
".	c #D1D137",
"+	c #D2D237",
"@	c #D8D832",
"#	c #DEDE2D",
"$	c #D3D336",
"%	c #D2D236",
"&	c #DDDD28",
"*	c #D5D521",
"=	c #CECE21",
"-	c #DCDC22",
";	c #D9D931",
">	c #CDCD21",
",	c #CCCC21",
"'	c #D5D522",
")	c #DBDB30",
"!	c #D6D621",
"~	c #DDDD20",
"{	c #D6D620",
"]	c #DDDD27",
"^	c #E5E520",
"/	c #EDED1F",
"(	c #ECEC1F",
"_	c #DCDC21",
":	c #EBEB1F",
"<	c #DFDF2C",
"[	c #DEDE1C",
"}	c #D1D119",
"|	c #D2D219",
"1	c #D4D435",
"2	c #DEDE20",
"3	c #E9E91F",
"4	c #EAEA1F",
"5	c #EAEA1E",
"6	c #E9E91E",
"7	c #DEDE2C",
"8	c #DCDC20",
"9	c #D3D31A",
"0	c #E1E120",
"a	c #E4E420",
"b	c #E0E020",
"c	c #DFDF30",
"                         ",
"            ..           ",
"          .+@##$         ",
"         .%&*==-;        ",
"        .%&>,,,,')       ",
"       ..#!,>~{,>]       ",
"       .+&>{^/(~>*)      ",
"      ..$_>:/:(({><      ",
"      ..#={([}|:^>-      ",
"      ..#=~[[/:|:=_1     ",
"      .+&>2}://}3=*<     ",
"      .%_>4}(//[[~=4     ",
"      .%_=3}///:}~=4     ",
"      .%_=3}///5|~=4     ",
"      .%->^}://|6{=      ",
"      ..7>~|5//}3=8      ",
"      ..#=~:95[[:>~      ",
"      ..@*=::|[/~>0      ",
"       .%-,~(//:==       ",
"       ..#=>{:a=,~       ",
"        .%]>,>>,=4       ",
"         .@'>,,=b        ",
"          .@&_-c         ",
"            %1           ",
"                         "};
