/* XPM */
static char * coin_front_xpm[] = {
"25 25 53 1",
" 	c #0E5907",
".	c #D4D435",
"+	c #DFDF2D",
"@	c #DFDF2C",
"#	c #DBDB30",
"$	c #DDDD27",
"%	c #DCDC21",
"&	c #CECE21",
"*	c #D5D521",
"=	c #DCDC22",
"-	c #DEDE2C",
";	c #D3D335",
">	c #CDCD21",
",	c #CCCC21",
"'	c #DBDB2F",
")	c #D1D130",
"!	c #DBDB22",
"~	c #DCDC20",
"{	c #DBDB20",
"]	c #D6D628",
"^	c #DCDC27",
"/	c #D8D81F",
"(	c #D3D31E",
"_	c #E1E11D",
":	c #E6E61E",
"<	c #EAEA1E",
"[	c #EAEA1F",
"}	c #DBDB1E",
"|	c #D6D64D",
"1	c #D0D021",
"2	c #DBDB21",
"3	c #D2D219",
"4	c #D1D119",
"5	c #DEDE1C",
"6	c #EBEB1F",
"7	c #DEDE2E",
"8	c #DFDF24",
"9	c #E7E723",
"0	c #EDED1F",
"a	c #ECEC1F",
"b	c #D5D520",
"c	c #E1E11E",
"d	c #E2E21D",
"e	c #E0E01D",
"f	c #E9E91E",
"g	c #E7E71E",
"h	c #DEDE1F",
"i	c #DFDF1F",
"j	c #D5D522",
"k	c #DADA1E",
"l	c #D4D41E",
"m	c #D8D82C",
"n	c #DFDF30",
"                         ",
"                         ",
"         .+@@@#          ",
"       #$%&&&&*=-.       ",
"     ;$*>,,,,,,,&='      ",
"    )!>,,>*~~{&,,,*]     ",
"    ^>,,*~/(((~~>,,*'    ",
"   -&,,*/_:<<[_}{>,,=|   ",
"  12,,*/:<344456}~>,&7   ",
"  ~&,>8953<00a546_b,,=   ",
"  %>,&c64a0000055d~,,*#  ",
" .%,,~d55000000a4[e>,&@  ",
" .%,,~d4600000004<_&,&@  ",
" .%,,~d3<00000004<_&,&@  ",
"  =,,b_f3000000<3gh>,&+  ",
"  @>,>ea3f0000a3<d~,,%.  ",
"  #*,,~}<33<6545:i&,>$   ",
"   $>,>{}6f3456:/*,,*#   ",
"   'j,,>~kk__elh*,,>$    ",
"    m*,,>*~~~~{&,,>!;    ",
"     mj>,,>&&>,,,&^)     ",
"      '$*>,,,,>&=-       ",
"        #@=%%%$n.        ",
"           ...           ",
"                         "};
