/* XPM */
static char *d2020136cca1452fcffcfa8abe70e48dI8fJftOqhSlC63kx[] = {
/* columns rows colors chars-per-pixel */
"50 50 5 1 ",
"  c #0E5907",
". c #A8A810",
"X c #EDED1F",
"o c #CCCC21",
"O c #D1D137",
/* pixels */
"                                                  ",
"                                                  ",
"                                                  ",
"                      OOOOOOOO                    ",
"                     OOOOOOOOOOO                  ",
"                    OOOOOXXXXXOOO                 ",
"                   OOOOXXoooooXXOO                ",
"                  OOOOXoooooooooXOO               ",
"                 OOOOXoooooooooooXO               ",
"                OOOOXoooooooooooooXO              ",
"               OOOOXXoooooooooooooXO              ",
"               OOOOXooooooXXXooooooXO             ",
"              OOOOOXoooooXXXXXoooooXO             ",
"              OOOOXooooXXXXXXXXXooooXO            ",
"             OOOOOXoooXXXXXXXXXXooooXO            ",
"             OOOOOXoooXXXXXXXXXXXoooXO            ",
"            OOOOOXooooXXXX...XXXXooooXO           ",
"            OOOOOXoooXXXX.XXX.XXXXoooXO           ",
"            OOOOOXoooXXX.XXXXX.XXXoooXO           ",
"            OOOOOXoooXX.XXXXXXX.XXoooXO           ",
"            OOOOOXoooXX.XXXXXXX.XXoooXO           ",
"            OOOOXooooXX.XXXXXXX.XXooooX           ",
"            OOOOXoooXXX.XXXXXXX.XXXoooX           ",
"            OOOOXoooXX.XXXXXXXXX.XXoooX           ",
"            OOOOXoooXX.XXXXXXXXX.XXoooX           ",
"            OOOOXoooXX.XXXXXXXXX.XXoooX           ",
"            OOOOXoooXX.XXXXXXXXX.XXoooX           ",
"            OOOOXoooXX.XXXXXXXXX.XXoooX           ",
"            OOOOXoooXXX.XXXXXXX.XXXoooX           ",
"            OOOOXooooXX.XXXXXXX.XXooooX           ",
"            OOOOOXoooXX.XXXXXXX.XXoooX            ",
"            OOOOOXoooXX.XXXXXXX.XXoooX            ",
"            OOOOOXoooXXX.XXXXX.XXXoooX            ",
"            OOOOOXoooXXXX.XXX.XXXXoooX            ",
"             OOOOXooooXXXX...XXXXooooX            ",
"             OOOOOXoooXXXXXXXXXXXoooX             ",
"              OOOOXooooXXXXXXXXXooooX             ",
"              OOOOXooooXXXXXXXXXooooX             ",
"               OOOOXoooooXXXXXoooooX              ",
"               OOOOXooooooXXXooooooX              ",
"                OOOOXoooooooooooooXX              ",
"                 OOOOXooooooooooooX               ",
"                  OOOXoooooooooooX                ",
"                   OOOXoooooooooX                 ",
"                    OOOXXoooooXX                  ",
"                     OOOOXXXXXOO                  ",
"                      OOOOOOOO                    ",
"                                                  ",
"                                                  ",
"                                                  "
};
