/* XPM */
static char *c95831cd1c894d76bcf5926902d0a50bO2wtre9WgQkRtnPP[] = {
/* columns rows colors chars-per-pixel */
"50 50 5 1 ",
"  c #0E5907",
". c #D4D41B",
"X c #EDED1F",
"o c #CCCC21",
"O c #D1D137",
/* pixels */
"                                                  ",
"                                                  ",
"                                                  ",
"                                                  ",
"                     OOOOOOOO                     ",
"                    OooooooooO                    ",
"                    oooooooooo                    ",
"                    oooooooooo                    ",
"                    oooooooooo                    ",
"                    oooooooooo                    ",
"                    oooooooooo                    ",
"                    oooooooooo                    ",
"                    oooooooooo                    ",
"                    oooooooooo                    ",
"                    oooooooooo                    ",
"                    oooooooooo                    ",
"                    oooooooooo                    ",
"                    oooooooooo                    ",
"                    oooooooooo                    ",
"                    oooooooooo                    ",
"                    oooooooooo                    ",
"                    ooOoooOooo                    ",
"                    ooOoooOooo                    ",
"                    ooOoooOooo                    ",
"                    ooOoooOooo                    ",
"                    ooOoooOooo                    ",
"                    ooOoooOooo                    ",
"                    ooOoooOooo                    ",
"                    ooOoooOooo                    ",
"                    ooOoooOooo                    ",
"                    oooooooooo                    ",
"                    oooooooooo                    ",
"                    oooooooooo                    ",
"                    oooooooooo                    ",
"                    oooooooooo                    ",
"                    oooooooooo                    ",
"                    .ooooooo..                    ",
"                    o.......oo                    ",
"                    XoooooooXX                    ",
"                    oXXXXXXXoo                    ",
"                    oooooooooo                    ",
"                    oooooooooo                    ",
"                    oooooooooo                    ",
"                    oooooooooo                    ",
"                    XooooooooX                    ",
"                    OXXXXXXXXO                    ",
"                    OOOOOOOOO                     ",
"                                                  ",
"                                                  ",
"                                                  "
};
